<?xml version="1.0" encoding="utf-8"?>
<!-- Generator: Adobe Illustrator 15.0.0, SVG Export Plug-In . SVG Version: 6.00 Build 0)  -->
<!DOCTYPE svg PUBLIC "-//W3C//DTD SVG 1.1//EN" "http://www.w3.org/Graphics/SVG/1.1/DTD/svg11.dtd">
<svg version="1.1" id="レイヤー_1" xmlns="http://www.w3.org/2000/svg" xmlns:xlink="http://www.w3.org/1999/xlink" x="0px"
	 y="0px" width="316px" height="254px" viewBox="0 0 316 254" enable-background="new 0 0 316 254" xml:space="preserve">
<link xmlns="http://www.w3.org/1999/xhtml" href='http://fonts.googleapis.com/css?family=Roboto:400,500,400italic' rel='stylesheet' type='text/css' />
<g>
	
		<polygon fill="#FFFFFF" stroke="#22AC38" stroke-width="4" stroke-linecap="round" stroke-linejoin="round" stroke-miterlimit="10" points="
		314,36 184,36 174,26 174,12 184,2 314,2 	"/>
	<g>
		
			<polygon fill="#FFFFFF" stroke="#22AC38" stroke-width="6" stroke-linecap="round" stroke-linejoin="round" stroke-miterlimit="10" points="
			177,74.031 177,251 3,251 3,17 119.969,17 		"/>
		<polygon fill="#22AC38" stroke="#22AC38" stroke-width="4" stroke-linejoin="round" stroke-miterlimit="10" points="120,17 
			120,74 177,74 		"/>
	</g>
	<g>
		<text transform="matrix(1 0 0 1 214.1797 28)" fill="#22AC38" font-family="'Roboto'" font-size="24">e69de2</text>
	</g>
	<path fill="#22AC38" d="M184,2l-10,10v14l10,10h10V2H184z M184,24c-2.76,0-5-2.241-5-5s2.24-5,5-5c2.759,0,5,2.241,5,5
		S186.759,24,184,24z"/>
	<path fill="none" stroke="#22AC38" stroke-width="4" stroke-linecap="round" stroke-linejoin="round" stroke-miterlimit="10" d="
		M148,44c0-13.253,10.746-24,24-24"/>
	<g>
		<text transform="matrix(1 0 0 1 37.2847 146.2734)" fill="#22AC38" font-family="'Roboto'" font-size="42">BLOB</text>
	</g>
	<g display="none">
		<text transform="matrix(1 0 0 1 26.9531 205)" display="inline" fill="#22AC38" font-family="'Roboto'" font-style="italic" font-size="30">“new file”</text>
	</g>
</g>
</svg>
