<?xml version="1.0" encoding="utf-8"?>
<!-- Generator: Adobe Illustrator 15.0.0, SVG Export Plug-In . SVG Version: 6.00 Build 0)  -->
<!DOCTYPE svg PUBLIC "-//W3C//DTD SVG 1.1//EN" "http://www.w3.org/Graphics/SVG/1.1/DTD/svg11.dtd">
<svg version="1.1" id="レイヤー_1" xmlns="http://www.w3.org/2000/svg" xmlns:xlink="http://www.w3.org/1999/xlink" x="0px"
	 y="0px" width="805px" height="1126px" viewBox="0 0 805 1126" enable-background="new 0 0 805 1126" xml:space="preserve">
<link xmlns="http://www.w3.org/1999/xhtml" href='http://fonts.googleapis.com/css?family=Roboto:400,500,400italic' rel='stylesheet' type='text/css' />
<g>
	<g>
		<path fill="#2EA7E0" d="M618,354c0-1.66,1.34-3,3-3l0,0c1.66,0,3,1.34,3,3l0,0c0,1.66-1.34,3-3,3l0,0
			C619.34,357,618,355.66,618,354z M618,342c0-1.66,1.34-3,3-3l0,0c1.66,0,3,1.34,3,3l0,0c0,1.66-1.34,3-3,3l0,0
			C619.34,345,618,343.66,618,342z M618,330c0-1.66,1.34-3,3-3l0,0c1.66,0,3,1.34,3,3l0,0c0,1.66-1.34,3-3,3l0,0
			C619.34,333,618,331.66,618,330z M618,318c0-1.66,1.34-3,3-3l0,0c1.66,0,3,1.34,3,3l0,0c0,1.66-1.34,3-3,3l0,0
			C619.34,321,618,319.66,618,318z M618,306c0-1.66,1.34-3,3-3l0,0c1.66,0,3,1.34,3,3l0,0c0,1.66-1.34,3-3,3l0,0
			C619.34,309,618,307.66,618,306z M618,294c0-1.66,1.34-3,3-3l0,0c1.66,0,3,1.34,3,3l0,0c0,1.66-1.34,3-3,3l0,0
			C619.34,297,618,295.66,618,294z M618,282c0-1.66,1.34-3,3-3l0,0c1.66,0,3,1.34,3,3l0,0c0,1.66-1.34,3-3,3l0,0
			C619.34,285,618,283.66,618,282z"/>
	</g>
	<g>
		<g>
			<circle fill="#FFFFFF" cx="621" cy="282" r="9.023"/>
		</g>
		<g>
			<path fill="#2EA7E0" d="M610.776,282c0,5.637,4.587,10.224,10.224,10.224s10.224-4.587,10.224-10.224
				s-4.587-10.224-10.224-10.224S610.776,276.363,610.776,282S610.776,276.363,610.776,282z M628.823,282
				c0,4.315-3.509,7.823-7.823,7.823s-7.823-3.508-7.823-7.823s3.509-7.823,7.823-7.823S628.823,277.685,628.823,282
				S628.823,277.685,628.823,282z"/>
		</g>
	</g>
	<g>
		<g>
			<path fill="#2EA7E0" d="M624.498,424.373l0.082-1.998c2.057,1.248,9.393-1.641,8.391-7.611c4.002,0.779,6.457-2.631,5.473-6.498
				c-0.85-3.334-1.184-5.285-0.111-11.115c1.33-7.236,3.568-15.551-1.43-24.111c-0.445-0.744,0-1.611,0.498-1.834
				c0.938-0.416,3.709-0.105,3.768-2.443v-8.719c0-3.111-4.559-5.602-19.002-5.555c-15.053,0.047-20.947,0.217-21,6.439
				c-0.053,6.111,0,7.805,0,7.805c0.053,1.945,1.348,2.256,2.186,2.561c0.498,0.17,0.703,0.908,0.475,1.412
				c-0.34,0.779-3.68,8.496-4.383,15.17c-0.656,6.188-2.531,8.607-1.893,12.773c0.756,4.934,0.234,20.895,0.17,25.67
				c-0.064,4.67,1.447,12.164,1.219,22.113c-0.217,9.498,10.781,9.545,10.277,1.002c-0.398-6.756,0.434-6.979,0.135-9.311
				c-0.504-4.09-0.029-8.607,0.205-11.777c0.1-1.453-0.34-3.053,0.105-7.307c0.557,2.338,1.201,2.438,2.725,5.783
				C614.83,431.709,624.217,428.873,624.498,424.373z"/>
		</g>
		<g>
			<path fill="#FFFFFF" d="M620.607,366.928c6-0.164,16.383,0.996,17.332,1.336c0.896,0.316,1.453-0.34,1.33-1.67
				c-0.076-0.926-0.053-5.607-0.053-5.607c0-2.057-2.109-4.559-18.105-4.559c-16.559,0.111-18.668,0.773-18.668,5.666l0.164,6.059
				c0.07,0.363,0.293,0.639,0.662,0.832C604.201,369.459,605.449,367.35,620.607,366.928z"/>
		</g>
		<g>
			<path fill="#FFFFFF" d="M622.225,381.061c0.275-0.264,0.721-0.363,0.932-0.24c1.061,0.557,0.258,1.775,0.176,2.719
				c-0.07,0.779-0.779,5.004,0.223,6.557c1.002,1.559,2.941,4.605,7.166,5.666c0.779,0.17,3.129,1.482,3.779,3.504
				c0.457,1.424,1.904,1.184,2.027-0.029c0.311-3.252,1.664-4.248,1.641-14.361c-0.445-8.057-2.004-15.609-12.727-16.113
				c-5.895-0.164-14.133,0.082-17.109,0.943c-3.018,0.879-3,3.334-4.113,5.496c-3.867,8.982-3.621,14.982-4.723,19.951
				c-0.434,1.957-1.195,3.445,0.557,5.941c3.738,5.32,4.998,11.725,6.111,13.283c0.691,1.078,1.049,1.383,1.441,1.553
				c0.645,0.275,0.727,1.389,1.506,2.332c0.445,0.615,0.662,0.891,0.943,1.559c1.166-0.891-0.146-1.693,2.379-2.93
				c0.551-0.264,1.564,0.041,2.01,0.205c1.025,0.586,1.189,2.777,1.348,3.639c0.117,0.686,0.252,1.506,0.404,2.279
				c0.387,2.057-1.723,2.678-0.979,2.748c3.779,0.381,3-4.693,2.725-6.357c-0.135-1.67-0.973-3.029-1.389-4.699
				c-0.557-0.721-0.668-4.541-3.363-4.5c-0.439-0.053-1.406,0.029-0.973-1.166c0.334-0.902,0.293-5.215-0.943-5.859
				c-0.568-0.293-0.943-0.586-1.219-1.195c-0.281-0.609,0.082-0.973,0.779-0.891c0.879,0.111,2.104,0.041,2.385-1.219
				c0.293-1.113,0.322-1.67-0.164-2.443c-0.445-0.832-1.447-2.385-1.395-3.111c0.188-0.586,0.639-1.043,1.283,0.334
				c0.598,1.225,2.596,2.713,4.887,0.609c3.375-3.1,3.627-2.104,3.996-13.096C621.85,381.652,621.938,381.354,622.225,381.061z"/>
		</g>
		<g>
			<path fill="#FFFFFF" d="M622.412,399.066c-1.828-1.441-2.443-2.555-4.248-1.189c-0.334,0.164-0.346,0.662-0.029,2.027
				c0.164,0.721,3.082,3.135,5.021,1.025C623.443,400.432,623.637,399.875,622.412,399.066z"/>
		</g>
		<g>
			<path fill="#FFFFFF" d="M628.166,396.764c0.275-0.879-3.797-2.279-4.055-2.221c-0.398,0.094-0.809,0.152-0.955,1.945
				c0,0.803,1.564,2.279,3.287,2.109C627.609,398.48,628.113,396.934,628.166,396.764z"/>
		</g>
		<g>
			<path fill="#FFFFFF" d="M617.912,404.012c-0.861-0.773-2.455-2.52-3.305-2.027c-1.008,0.592-1.529,1.271-0.885,3.082
				c0.428,1.213,2.385,3.475,4.775,1.031C618.803,405.348,619.055,405.066,617.912,404.012z"/>
		</g>
		<g>
			<path fill="#FFFFFF" d="M632.912,413.176c5.25,1.26,4.863-4.523,3.475-6.855c-2.221-3.744-2.777-7.002-4.283-8.279
				c-0.838-0.721-2.994-1.781-3.105-0.721c-0.1,0.938-0.879,1.793-1.33,2.279c-0.199,0.205-1.646-0.088-1.617,0.217
				c0.053,0.223,1.559-0.164,3.334,3.445c0.727,1.559,2.068,4.916,2.338,6.111c0.193,0.92,0.633,1.84,0.855,3.445
				C632.631,413.123,632.795,413.158,632.912,413.176z"/>
		</g>
		<g>
			<path fill="#FFFFFF" d="M624.604,420.184c-0.217-3.967,0.023-5.561,0.059-6.533c0.504-4.887-1.371-7.055-2.76-8.109
				c-0.932-1.002-1.723-1.277-2.355-2.057c-0.498-0.627-1.576-1.307,0.088-0.891c0.814,0.205,1.336,0.873,2.695,0.334
				c0.826-0.498,1.33-0.609,2.227-2.109c0.053-0.17,0.082-0.363,0.164-0.223c0.369,0.445,2.936,0.896,4.002,4.998
				c1.406,5.438,2.742,7.846,2.953,8.988c0.029,0.193,0.029,0.504,0,0.756c-0.082,1.676-0.369,2.285-0.791,2.812
				c-0.428,0.527-2.777,3.305-5.701,2.59C624.85,420.6,624.604,420.43,624.604,420.184z"/>
		</g>
		<g>
			<path fill="#FFFFFF" d="M615.439,427.543c0,0.387,5.883,1.043,7.395-3.059c0.738-2.016,0.205-3.105,0.275-5.109
				c-0.17-3.445,0.076-6.211,0.047-7.611c-0.035-2.062-0.48-3.674-1.658-4.775c-0.598-0.557-1.553-1.811-1.887-0.973
				c-0.334,0.832-0.475,1.359-1.834,2.08c-1.781,0.943-2.971-0.299-2.508,0.809c0.416,0.949,0.451,1.008,1.172,2.027
				c2.76,3.896,5.725,16.277-0.504,15.996C615.498,426.986,615.164,427.373,615.439,427.543z"/>
		</g>
		<g>
			<path fill="#FFFFFF" d="M611.156,421.262c-0.047,0.727,0.434,1.289,0.621,1.723c0.334,0.779,0.832,3.557,2.443,2.279
				c1.605-1.277,0.223-5.062-0.223-6.387c-0.223-0.557-0.609-0.779-1.113-0.779C612.387,418.098,611.156,418.432,611.156,421.262z"
				/>
		</g>
		<g>
			<path fill="#FFFFFF" d="M600.387,442.039c0.047-3.053-1.559-10.107-0.832-13.834c-0.832-4.553,0.053-12.439-0.17-15.053
				c0-2.221-0.498-7.225,0-10.67c0.393,0.949,3.111,4.559,4.553,10.172c0.451,1.945,1.342,3.498,3.451,5.051
				c0.633,3.92,0.914,9.627,0.357,9.891c-0.264,0.129-0.574,0.199-0.416,0.92c0.135,0.639,0.305,0.305,0.363,1.5
				c0.164,6.164,0.053,9.439,0.053,9.439c-0.082,1.365-0.592,0.908-0.721,1.395c-0.117,0.428,0.334,0.105,0.504,1.553
				c0.076,0.756,0.357,2.719,0.275,8.197c0.111,4.834-7.201,5.953-7.535-2.227C600.053,442.818,600.551,442.877,600.387,442.039z"/>
		</g>
	</g>
</g>
<g>
	
		<polygon fill="#FFFFFF" stroke="#007DFF" stroke-width="4" stroke-linecap="round" stroke-linejoin="round" stroke-miterlimit="10" points="
		803,36 673,36 663,26 663,12 673,2 803,2 	"/>
	<g>
		
			<text transform="matrix(1 0 0 1 509.5332 245.6182)" fill="#007DFF" font-family="'Roboto'" font-size="42" letter-spacing="-1">3rd COMMIT</text>
	</g>
	
		<path fill="#FFFFFF" stroke="#007DFF" stroke-width="6" stroke-linecap="round" stroke-linejoin="round" stroke-miterlimit="10" d="
		M652.199,188h40.164v-0.004c0.046,0,0.092,0.004,0.139,0.004C717.63,188,738,167.628,738,142.499
		c0-20.231-13.212-37.372-31.478-43.285c0.179-1.58,0.277-3.186,0.277-4.814c0-23.693-19.207-42.899-42.899-42.899
		c-5.724,0-11.185,1.132-16.178,3.165C637.021,40.882,620.303,32,601.5,32c-30.653,0-55.783,23.581-58.279,53.591
		C520.682,91.286,504,111.694,504,136.001c0,28.675,23.21,51.923,51.865,51.995V188h39.785"/>
	<g>
		
			<line fill="none" stroke="#007DFF" stroke-width="10" stroke-linecap="round" stroke-linejoin="round" stroke-miterlimit="10" x1="623.925" y1="89.763" x2="623.925" y2="187.263"/>
		
			<line fill="none" stroke="#007DFF" stroke-width="10" stroke-linecap="round" stroke-linejoin="round" stroke-miterlimit="10" x1="623.925" y1="89.763" x2="672.675" y2="138.513"/>
		
			<line fill="none" stroke="#007DFF" stroke-width="10" stroke-linecap="round" stroke-linejoin="round" stroke-miterlimit="10" x1="575.175" y1="138.513" x2="623.925" y2="89.763"/>
	</g>
	<g>
		<text transform="matrix(1 0 0 1 702.9746 27.9995)" fill="#007DFF" font-family="'Roboto'" font-size="24">1d9a0c</text>
	</g>
	<polygon fill="#007DFF" points="683,2 683,36 673,36 663,26 663,12 673,2 	"/>
	<circle fill="#FFFFFF" cx="673" cy="19" r="5"/>
	<path fill="none" stroke="#007DFF" stroke-width="4" stroke-linecap="round" stroke-linejoin="round" stroke-miterlimit="10" d="
		M637,44c0-13.253,10.746-24,24-24"/>
</g>
<g>
	<g>
		<path fill="#2EA7E0" d="M618,794c0-1.66,1.34-3,3-3l0,0c1.66,0,3,1.34,3,3l0,0c0,1.649-1.34,3-3,3l0,0
			C619.34,797,618,795.649,618,794z M618,782c0-1.66,1.34-3,3-3l0,0c1.66,0,3,1.34,3,3l0,0c0,1.66-1.34,3-3,3l0,0
			C619.34,785,618,783.66,618,782z M618,770c0-1.66,1.34-3,3-3l0,0c1.66,0,3,1.34,3,3l0,0c0,1.649-1.34,3-3,3l0,0
			C619.34,773,618,771.649,618,770z M618,758c0-1.66,1.34-3,3-3l0,0c1.66,0,3,1.34,3,3l0,0c0,1.66-1.34,3-3,3l0,0
			C619.34,761,618,759.66,618,758z M618,746c0-1.66,1.34-3,3-3l0,0c1.66,0,3,1.34,3,3l0,0c0,1.649-1.34,3-3,3l0,0
			C619.34,749,618,747.649,618,746z M618,734c0-1.66,1.34-3,3-3l0,0c1.66,0,3,1.34,3,3l0,0c0,1.66-1.34,3-3,3l0,0
			C619.34,737,618,735.66,618,734z M618,722c0-1.66,1.34-3,3-3l0,0c1.66,0,3,1.34,3,3l0,0c0,1.66-1.34,3-3,3l0,0
			C619.34,725,618,723.66,618,722z"/>
	</g>
	<g>
		<g>
			<circle fill="#FFFFFF" cx="621" cy="722" r="9.023"/>
		</g>
		<g>
			<path fill="#2EA7E0" d="M610.776,722c0,5.637,4.587,10.224,10.224,10.224s10.224-4.587,10.224-10.224
				s-4.587-10.224-10.224-10.224S610.776,716.363,610.776,722S610.776,716.363,610.776,722z M628.823,722
				c0,4.314-3.509,7.823-7.823,7.823s-7.823-3.509-7.823-7.823s3.509-7.823,7.823-7.823S628.823,717.686,628.823,722
				S628.823,717.686,628.823,722z"/>
		</g>
	</g>
	<g>
		<g>
			<path fill="#2EA7E0" d="M624.498,864.373l0.082-1.998c2.057,1.248,9.393-1.641,8.391-7.611c4.002,0.779,6.457-2.631,5.473-6.498
				c-0.85-3.334-1.184-5.285-0.111-11.115c1.33-7.236,3.568-15.551-1.43-24.111c-0.445-0.744,0-1.611,0.498-1.834
				c0.938-0.416,3.709-0.105,3.768-2.443v-8.719c0-3.111-4.559-5.602-19.002-5.555c-15.053,0.047-20.947,0.217-21,6.439
				c-0.053,6.111,0,7.805,0,7.805c0.053,1.945,1.348,2.256,2.186,2.561c0.498,0.17,0.703,0.908,0.475,1.412
				c-0.34,0.779-3.68,8.496-4.383,15.17c-0.656,6.188-2.531,8.607-1.893,12.773c0.756,4.934,0.234,20.895,0.17,25.67
				c-0.064,4.67,1.447,12.164,1.219,22.113c-0.217,9.498,10.781,9.545,10.277,1.002c-0.398-6.756,0.434-6.979,0.135-9.311
				c-0.504-4.09-0.029-8.607,0.205-11.777c0.1-1.453-0.34-3.053,0.105-7.307c0.557,2.338,1.201,2.438,2.725,5.783
				C614.83,871.709,624.217,868.873,624.498,864.373z"/>
		</g>
		<g>
			<path fill="#FFFFFF" d="M620.607,806.928c6-0.164,16.383,0.996,17.332,1.336c0.896,0.316,1.453-0.34,1.33-1.67
				c-0.076-0.926-0.053-5.607-0.053-5.607c0-2.057-2.109-4.559-18.105-4.559c-16.559,0.111-18.668,0.773-18.668,5.666l0.164,6.059
				c0.07,0.363,0.293,0.639,0.662,0.832C604.201,809.459,605.449,807.35,620.607,806.928z"/>
		</g>
		<g>
			<path fill="#FFFFFF" d="M622.225,821.061c0.275-0.264,0.721-0.363,0.932-0.24c1.061,0.557,0.258,1.775,0.176,2.719
				c-0.07,0.779-0.779,5.004,0.223,6.557c1.002,1.559,2.941,4.605,7.166,5.666c0.779,0.17,3.129,1.482,3.779,3.504
				c0.457,1.424,1.904,1.184,2.027-0.029c0.311-3.252,1.664-4.248,1.641-14.361c-0.445-8.057-2.004-15.609-12.727-16.113
				c-5.895-0.164-14.133,0.082-17.109,0.943c-3.018,0.879-3,3.334-4.113,5.496c-3.867,8.982-3.621,14.982-4.723,19.951
				c-0.434,1.957-1.195,3.445,0.557,5.941c3.738,5.32,4.998,11.725,6.111,13.283c0.691,1.078,1.049,1.383,1.441,1.553
				c0.645,0.275,0.727,1.389,1.506,2.332c0.445,0.615,0.662,0.891,0.943,1.559c1.166-0.891-0.146-1.693,2.379-2.93
				c0.551-0.264,1.564,0.041,2.01,0.205c1.025,0.586,1.189,2.777,1.348,3.639c0.117,0.686,0.252,1.506,0.404,2.279
				c0.387,2.057-1.723,2.678-0.979,2.748c3.779,0.381,3-4.693,2.725-6.357c-0.135-1.67-0.973-3.029-1.389-4.699
				c-0.557-0.721-0.668-4.541-3.363-4.5c-0.439-0.053-1.406,0.029-0.973-1.166c0.334-0.902,0.293-5.215-0.943-5.859
				c-0.568-0.293-0.943-0.586-1.219-1.195c-0.281-0.609,0.082-0.973,0.779-0.891c0.879,0.111,2.104,0.041,2.385-1.219
				c0.293-1.113,0.322-1.67-0.164-2.443c-0.445-0.832-1.447-2.385-1.395-3.111c0.188-0.586,0.639-1.043,1.283,0.334
				c0.598,1.225,2.596,2.713,4.887,0.609c3.375-3.1,3.627-2.104,3.996-13.096C621.85,821.652,621.938,821.354,622.225,821.061z"/>
		</g>
		<g>
			<path fill="#FFFFFF" d="M622.412,839.066c-1.828-1.441-2.443-2.555-4.248-1.189c-0.334,0.164-0.346,0.662-0.029,2.027
				c0.164,0.721,3.082,3.135,5.021,1.025C623.443,840.432,623.637,839.875,622.412,839.066z"/>
		</g>
		<g>
			<path fill="#FFFFFF" d="M628.166,836.764c0.275-0.879-3.797-2.279-4.055-2.221c-0.398,0.094-0.809,0.152-0.955,1.945
				c0,0.803,1.564,2.279,3.287,2.109C627.609,838.48,628.113,836.934,628.166,836.764z"/>
		</g>
		<g>
			<path fill="#FFFFFF" d="M617.912,844.012c-0.861-0.773-2.455-2.52-3.305-2.027c-1.008,0.592-1.529,1.271-0.885,3.082
				c0.428,1.213,2.385,3.475,4.775,1.031C618.803,845.348,619.055,845.066,617.912,844.012z"/>
		</g>
		<g>
			<path fill="#FFFFFF" d="M632.912,853.176c5.25,1.26,4.863-4.523,3.475-6.855c-2.221-3.744-2.777-7.002-4.283-8.279
				c-0.838-0.721-2.994-1.781-3.105-0.721c-0.1,0.938-0.879,1.793-1.33,2.279c-0.199,0.205-1.646-0.088-1.617,0.217
				c0.053,0.223,1.559-0.164,3.334,3.445c0.727,1.559,2.068,4.916,2.338,6.111c0.193,0.92,0.633,1.84,0.855,3.445
				C632.631,853.123,632.795,853.158,632.912,853.176z"/>
		</g>
		<g>
			<path fill="#FFFFFF" d="M624.604,860.184c-0.217-3.967,0.023-5.561,0.059-6.533c0.504-4.887-1.371-7.055-2.76-8.109
				c-0.932-1.002-1.723-1.277-2.355-2.057c-0.498-0.627-1.576-1.307,0.088-0.891c0.814,0.205,1.336,0.873,2.695,0.334
				c0.826-0.498,1.33-0.609,2.227-2.109c0.053-0.17,0.082-0.363,0.164-0.223c0.369,0.445,2.936,0.896,4.002,4.998
				c1.406,5.438,2.742,7.846,2.953,8.988c0.029,0.193,0.029,0.504,0,0.756c-0.082,1.676-0.369,2.285-0.791,2.812
				c-0.428,0.527-2.777,3.305-5.701,2.59C624.85,860.6,624.604,860.43,624.604,860.184z"/>
		</g>
		<g>
			<path fill="#FFFFFF" d="M615.439,867.543c0,0.387,5.883,1.043,7.395-3.059c0.738-2.016,0.205-3.105,0.275-5.109
				c-0.17-3.445,0.076-6.211,0.047-7.611c-0.035-2.062-0.48-3.674-1.658-4.775c-0.598-0.557-1.553-1.811-1.887-0.973
				c-0.334,0.832-0.475,1.359-1.834,2.08c-1.781,0.943-2.971-0.299-2.508,0.809c0.416,0.949,0.451,1.008,1.172,2.027
				c2.76,3.896,5.725,16.277-0.504,15.996C615.498,866.986,615.164,867.373,615.439,867.543z"/>
		</g>
		<g>
			<path fill="#FFFFFF" d="M611.156,861.262c-0.047,0.727,0.434,1.289,0.621,1.723c0.334,0.779,0.832,3.557,2.443,2.279
				c1.605-1.277,0.223-5.062-0.223-6.387c-0.223-0.557-0.609-0.779-1.113-0.779C612.387,858.098,611.156,858.432,611.156,861.262z"
				/>
		</g>
		<g>
			<path fill="#FFFFFF" d="M600.387,882.039c0.047-3.053-1.559-10.107-0.832-13.834c-0.832-4.553,0.053-12.439-0.17-15.053
				c0-2.221-0.498-7.225,0-10.67c0.393,0.949,3.111,4.559,4.553,10.172c0.451,1.945,1.342,3.498,3.451,5.051
				c0.633,3.92,0.914,9.627,0.357,9.891c-0.264,0.129-0.574,0.199-0.416,0.92c0.135,0.639,0.305,0.305,0.363,1.5
				c0.164,6.164,0.053,9.439,0.053,9.439c-0.082,1.365-0.592,0.908-0.721,1.395c-0.117,0.428,0.334,0.105,0.504,1.553
				c0.076,0.756,0.357,2.719,0.275,8.197c0.111,4.834-7.201,5.953-7.535-2.227C600.053,882.818,600.551,882.877,600.387,882.039z"/>
		</g>
	</g>
</g>
<g>
	
		<polygon fill="#FFFFFF" stroke="#007DFF" stroke-width="4" stroke-linecap="round" stroke-linejoin="round" stroke-miterlimit="10" points="
		803,476 673,476 663,466 663,452 673,442 803,442 	"/>
	<g>
		
			<text transform="matrix(1 0 0 1 505.0117 685.6182)" fill="#007DFF" font-family="'Roboto'" font-size="42" letter-spacing="-1">2nd COMMIT</text>
	</g>
	
		<path fill="#FFFFFF" stroke="#007DFF" stroke-width="6" stroke-linecap="round" stroke-linejoin="round" stroke-miterlimit="10" d="
		M652.199,628h40.164v-0.004c0.046,0,0.092,0.004,0.139,0.004C717.63,628,738,607.628,738,582.499
		c0-20.231-13.212-37.372-31.478-43.285c0.179-1.58,0.277-3.186,0.277-4.814c0-23.693-19.207-42.899-42.899-42.899
		c-5.724,0-11.185,1.132-16.178,3.165C637.021,480.882,620.303,472,601.5,472c-30.653,0-55.783,23.581-58.279,53.591
		C520.682,531.286,504,551.694,504,576.001c0,28.675,23.21,51.923,51.865,51.995V628h39.785"/>
	<g>
		
			<line fill="none" stroke="#007DFF" stroke-width="10" stroke-linecap="round" stroke-linejoin="round" stroke-miterlimit="10" x1="623.925" y1="529.763" x2="623.925" y2="627.263"/>
		
			<line fill="none" stroke="#007DFF" stroke-width="10" stroke-linecap="round" stroke-linejoin="round" stroke-miterlimit="10" x1="623.925" y1="529.763" x2="672.675" y2="578.513"/>
		
			<line fill="none" stroke="#007DFF" stroke-width="10" stroke-linecap="round" stroke-linejoin="round" stroke-miterlimit="10" x1="575.175" y1="578.513" x2="623.925" y2="529.763"/>
	</g>
	<g>
		<text transform="matrix(1 0 0 1 703.2617 467.9995)" fill="#007DFF" font-family="'Roboto'" font-size="24">4dc5c8</text>
	</g>
	<polygon fill="#007DFF" points="683,442 683,476 673,476 663,466 663,452 673,442 	"/>
	<circle fill="#FFFFFF" cx="673" cy="459" r="5"/>
	<path fill="none" stroke="#007DFF" stroke-width="4" stroke-linecap="round" stroke-linejoin="round" stroke-miterlimit="10" d="
		M637,484c0-13.253,10.746-24,24-24"/>
</g>
<g>
	
		<polygon fill="#FFFFFF" stroke="#007DFF" stroke-width="4" stroke-linecap="round" stroke-linejoin="round" stroke-miterlimit="10" points="
		803,916 673,916 663,906 663,892 673,882 803,882 	"/>
	<g>
		
			<text transform="matrix(1 0 0 1 510.6914 1125.6182)" fill="#007DFF" font-family="'Roboto'" font-size="42" letter-spacing="-1">1st COMMIT</text>
	</g>
	
		<path fill="#FFFFFF" stroke="#007DFF" stroke-width="6" stroke-linecap="round" stroke-linejoin="round" stroke-miterlimit="10" d="
		M652.199,1068h40.164v-0.004c0.046,0,0.092,0.004,0.139,0.004c25.128,0,45.498-20.372,45.498-45.501
		c0-20.231-13.212-37.372-31.478-43.285c0.179-1.58,0.277-3.186,0.277-4.814c0-23.693-19.207-42.899-42.899-42.899
		c-5.724,0-11.185,1.132-16.178,3.165C637.021,920.882,620.303,912,601.5,912c-30.653,0-55.783,23.581-58.279,53.591
		c-22.539,5.695-39.221,26.104-39.221,50.41c0,28.675,23.21,51.923,51.865,51.995V1068h39.785"/>
	<g>
		
			<line fill="none" stroke="#007DFF" stroke-width="10" stroke-linecap="round" stroke-linejoin="round" stroke-miterlimit="10" x1="623.925" y1="969.763" x2="623.925" y2="1067.263"/>
		
			<line fill="none" stroke="#007DFF" stroke-width="10" stroke-linecap="round" stroke-linejoin="round" stroke-miterlimit="10" x1="623.925" y1="969.763" x2="672.675" y2="1018.513"/>
		
			<line fill="none" stroke="#007DFF" stroke-width="10" stroke-linecap="round" stroke-linejoin="round" stroke-miterlimit="10" x1="575.175" y1="1018.513" x2="623.925" y2="969.763"/>
	</g>
	<g>
		<text transform="matrix(1 0 0 1 702.418 908)" fill="#007DFF" font-family="'Roboto'" font-size="24">a86db9</text>
	</g>
	<polygon fill="#007DFF" points="683,882 683,916 673,916 663,906 663,892 673,882 	"/>
	<circle fill="#FFFFFF" cx="673" cy="899" r="5"/>
	<path fill="none" stroke="#007DFF" stroke-width="4" stroke-linecap="round" stroke-linejoin="round" stroke-miterlimit="10" d="
		M637,924c0-13.253,10.746-24,24-24"/>
</g>
<g>
	
		<polygon fill="#FFFFFF" stroke="#EA5514" stroke-width="6" stroke-linecap="round" stroke-linejoin="round" stroke-miterlimit="10" points="
		237,187 43,187 3,147 3,73 43,33 237,33 	"/>
	
		<circle fill="none" stroke="#EA5514" stroke-width="10" stroke-linecap="round" stroke-linejoin="round" stroke-miterlimit="10" cx="29" cy="110" r="10"/>
	<g>
		<text transform="matrix(1 0 0 1 70.0371 122.2739)" fill="#EA5514" font-family="'Roboto-Bold'" font-size="42">master</text>
	</g>
	<g>
		<g>
			<path fill="#0099FF" d="M390,110c0-1.66,1.34-3,3-3l0,0c1.66,0,3,1.34,3,3l0,0c0,1.66-1.34,3-3,3l0,0
				C391.34,113,390,111.66,390,110z M378,110c0-1.66,1.34-3,3-3l0,0c1.66,0,3,1.34,3,3l0,0c0,1.66-1.34,3-3,3l0,0
				C379.34,113,378,111.66,378,110z M366,110c0-1.66,1.34-3,3-3l0,0c1.66,0,3,1.34,3,3l0,0c0,1.66-1.34,3-3,3l0,0
				C367.34,113,366,111.66,366,110z M354,110c0-1.66,1.34-3,3-3l0,0c1.66,0,3,1.34,3,3l0,0c0,1.66-1.34,3-3,3l0,0
				C355.34,113,354,111.66,354,110z M342,110c0-1.66,1.34-3,3-3l0,0c1.66,0,3,1.34,3,3l0,0c0,1.66-1.34,3-3,3l0,0
				C343.34,113,342,111.66,342,110z M330,110c0-1.66,1.34-3,3-3l0,0c1.66,0,3,1.34,3,3l0,0c0,1.66-1.34,3-3,3l0,0
				C331.34,113,330,111.66,330,110z M318,110c0-1.66,1.34-3,3-3l0,0c1.66,0,3,1.34,3,3l0,0c0,1.66-1.34,3-3,3l0,0
				C319.34,113,318,111.66,318,110z M306,110c0-1.66,1.34-3,3-3l0,0c1.66,0,3,1.34,3,3l0,0c0,1.66-1.34,3-3,3l0,0
				C307.34,113,306,111.66,306,110z M294,110c0-1.66,1.34-3,3-3l0,0c1.66,0,3,1.34,3,3l0,0c0,1.66-1.34,3-3,3l0,0
				C295.34,113,294,111.66,294,110z M282,110c0-1.66,1.34-3,3-3l0,0c1.66,0,3,1.34,3,3l0,0c0,1.66-1.34,3-3,3l0,0
				C283.34,113,282,111.66,282,110z M270,110c0-1.66,1.34-3,3-3l0,0c1.66,0,3,1.34,3,3l0,0c0,1.66-1.34,3-3,3l0,0
				C271.34,113,270,111.66,270,110z M258,110c0-1.66,1.34-3,3-3l0,0c1.66,0,3,1.34,3,3l0,0c0,1.66-1.34,3-3,3l0,0
				C259.34,113,258,111.66,258,110z M246,110c0-1.66,1.34-3,3-3l0,0c1.66,0,3,1.34,3,3l0,0c0,1.66-1.34,3-3,3l0,0
				C247.34,113,246,111.66,246,110z M234,110c0-1.66,1.34-3,3-3l0,0c1.66,0,3,1.34,3,3l0,0c0,1.66-1.34,3-3,3l0,0
				C235.34,113,234,111.66,234,110z"/>
		</g>
		<g>
			<g>
				<circle fill="#FFFFFF" cx="237" cy="110" r="11.279"/>
			</g>
			<g>
				<path fill="#0099FF" d="M237,122.779c7.046,0,12.779-5.733,12.779-12.779S244.046,97.221,237,97.221
					s-12.779,5.733-12.779,12.779S229.954,122.779,237,122.779S229.954,122.779,237,122.779z M237,100.221
					c5.394,0,9.779,4.386,9.779,9.779s-4.386,9.779-9.779,9.779s-9.779-4.386-9.779-9.779S231.606,100.221,237,100.221
					S231.606,100.221,237,100.221z"/>
			</g>
		</g>
		<g>
			<g>
				<path fill="#0099FF" d="M395.174,129.374c2.51-0.094,6.03-0.146,11.332,0.047c2.457,0.094,3.033-0.919,3.855-5.217
					c0.359-1.866,1.784-0.872,3.807-1.444c1.835-0.722,2.173-5.114,2.173-5.114c0.021-0.989,0.553-1.013,0.867-0.867
					c7.181,3.037,14.772-1.566,14.943-0.773c1.322,3.628,4.94,3.352,5.4,2.414c-0.099,1.636,2.409,2.986,3.178,2.602
					c2.771-1.467,2.822-2.531,4.749-3.207c3.52-1.519,2.77-3.168,6.145-3.352c2.461-0.131,3.277-0.539,3.858-1.059
					c2.555-2.503,0.337-5.832-1.205-6.942c0.577-2.602-3.183-5.771-4.05-7.94c1.158-0.023,2.92-0.291,5.639-1.214
					c1.421-0.487,1.083,0.225,3.567-0.028c3.352-0.3,4.632-0.647,5.69-1.13c0.619-0.286,3.858-0.216,5.541-0.797
					c5.354-0.773,4.51-5.592,4.388-6.052c-0.047-0.192-0.099-0.192-1.097-0.192c-1.351,0.098-3.77-0.605-5.747-0.286
					c-0.769,0.094-1.979-0.244-3.854,0c-2.344-0.413-4.055,0.211-6.78-0.759c-0.408-0.122-0.321,0.267-1.226,0.183
					c-0.483-0.051-0.422-0.436-1.843-0.267c-1.626,0.188-3.703,0.019-5.676,0.019c-1.979,0-3.521-0.403-8.34-0.811
					c-1.973-0.173-3.522-1.064-4.964-0.342c-2.198,1.097-9.834,4.435-18.028,8.484c-0.173,0.084-0.895,0.492-1.35-0.581
					c-0.919-1.702-1.448-1.205-4.678-1.106c-2.309-0.094-0.596-1.866-3.132-1.81c-3.904,0.084-5.438,0.408-11.137,0.291
					c-2.316-0.047-2.944-0.131-2.986,1.504v34.683C394.211,128.839,394.455,129.374,395.174,129.374z"/>
			</g>
			<g>
				<path fill="#FFFFFF" d="M473.894,90.275c0.141,1.533-2.7,1.158-3.829,0.928c-0.676-0.131-1.182-1.2-0.507-1.444l4.19,0.384
					C473.81,90.139,473.903,90.242,473.894,90.275z"/>
			</g>
			<g>
				<path fill="#FFFFFF" d="M451.3,108.167c-1.641,0.249-1.49,0.924-2.372,0.807c-1.162-0.164-0.121-0.605-4.102-0.506
					c-1.152,0-1.781-0.08-2.555,0.408c-0.384-0.319-1.301-0.75-1.926-0.197c-1.444-0.291-0.934-0.459-3.378,0.098
					c-3.293,0.75-3.949-0.595-5.478-1.345c-0.407-0.188-0.68-0.333-1.477-0.211c-6.074,0.736-3.447,0.717-11.868,0.207
					c-2.916-0.553-4.046-2.124-3.924-6.075c0.239-4.481,1.2-3.858,3.661-4.917c9.979-4.435,16.678-8.241,19.279-8.049
					c7.379,0.099,6.028,1.449,15.765,1.158c3.084-0.385,2.99,1.2,4.144,1.012c0.872-0.483,0.154-0.947,3.136-0.675
					c6.052,0.553,7.257-0.478,7.81,0.478c0.74,1.284,0.722,2.091,4.65,1.758c0.323-0.023,0.422-0.033,0.613-0.065
					c0.483-0.117,0.507,0.173,0.038,0.529c-0.385,0.295-3.581,1.847-7.327,1.252c-2.123-0.338-1.015,0.487-4.532,0.487
					c-1.542-0.103-2.503-0.103-2.986-0.202c-1.542,0.586-4.532,0.628-5.501,0.394c-1.179-0.3-1.731-0.68-2.793-0.104
					c-1.058,0.582-3.378,1.378-6.842,0.966c-4.05-0.483-3.834-1.266-4.242-0.966c-0.942,0.717,0.984,2.039-1.013,3.567
					c-1.026,0.788-2.123-2.358-3.136-2.311c-0.604,0.084-0.722,0.638-0.432,1.303c0.137,0.314,1.341,2.1,0.338,2.841
					c-1.641,1.209-4.58-2.41-6.849-0.914c-0.529,0.408,0.038,0.989,0.675,0.914c1.095-0.131,2.944,0.923,3.713,1.594
					c1.013,0.914,3.904,2.311,4.969,2.747c3.76,1.542,5.009,0.389,5.686,1.35c0.577,0.722,1.749-0.366,3.085-0.581
					c2.521-0.413,8.315,1.664,7.763,2.943c-0.211,0.422-0.605,0.389-1.123,0.291C452.229,108.064,452.021,108.055,451.3,108.167z"/>
			</g>
			<g>
				<path fill="#FFFFFF" d="M449.889,111.284c0.582-1.256,0.643-1.425,1.856-1.688c1.064-0.234,4.148,0.675,3.736,1.979
					c-0.316,0.408-1.612,0.431-2.433,0.623C452.182,112.4,449.481,112.705,449.889,111.284z"/>
			</g>
			<g>
				<path fill="#FFFFFF" d="M411.965,121.484c1.24-0.061,1.385-0.815,1.582-1.622c0.276-1.158-0.581-5.977-0.68-12.051
					c-0.094-6.07,0.099-7.81,0.389-11.086c0.07-0.806,0.72-1.819-0.389-1.875c-3.609-0.202-4.721-0.488-5.304,2.353
					c-0.673,3.328-0.767,16.256,0.101,23.044C407.962,120.786,407.229,121.845,411.965,121.484z"/>
			</g>
		</g>
	</g>
</g>
<g>
	
		<polygon fill="#FFFFFF" stroke="#EA5514" stroke-width="6" stroke-linecap="round" stroke-linejoin="round" stroke-miterlimit="10" points="
		237,1067 43,1067 3,1027 3,953 43,913 237,913 	"/>
	
		<circle fill="none" stroke="#EA5514" stroke-width="10" stroke-linecap="round" stroke-linejoin="round" stroke-miterlimit="10" cx="29" cy="990" r="10"/>
	<g>
		<text transform="matrix(1 0 0 1 68.1396 978.2734)"><tspan x="0" y="0" fill="#EA5514" font-family="'Roboto-Bold'" font-size="42">origin /</tspan><tspan x="1.897" y="48" fill="#EA5514" font-family="'Roboto-Bold'" font-size="42">master</tspan></text>
	</g>
	<g>
		<g>
			<path fill="#0099FF" d="M390,990c0-1.66,1.34-3,3-3l0,0c1.66,0,3,1.34,3,3l0,0c0,1.66-1.34,3-3,3l0,0
				C391.34,993,390,991.66,390,990z M378,990c0-1.66,1.34-3,3-3l0,0c1.66,0,3,1.34,3,3l0,0c0,1.66-1.34,3-3,3l0,0
				C379.34,993,378,991.66,378,990z M366,990c0-1.66,1.34-3,3-3l0,0c1.66,0,3,1.34,3,3l0,0c0,1.66-1.34,3-3,3l0,0
				C367.34,993,366,991.66,366,990z M354,990c0-1.66,1.34-3,3-3l0,0c1.66,0,3,1.34,3,3l0,0c0,1.66-1.34,3-3,3l0,0
				C355.34,993,354,991.66,354,990z M342,990c0-1.66,1.34-3,3-3l0,0c1.66,0,3,1.34,3,3l0,0c0,1.66-1.34,3-3,3l0,0
				C343.34,993,342,991.66,342,990z M330,990c0-1.66,1.34-3,3-3l0,0c1.66,0,3,1.34,3,3l0,0c0,1.66-1.34,3-3,3l0,0
				C331.34,993,330,991.66,330,990z M318,990c0-1.66,1.34-3,3-3l0,0c1.66,0,3,1.34,3,3l0,0c0,1.66-1.34,3-3,3l0,0
				C319.34,993,318,991.66,318,990z M306,990c0-1.66,1.34-3,3-3l0,0c1.66,0,3,1.34,3,3l0,0c0,1.66-1.34,3-3,3l0,0
				C307.34,993,306,991.66,306,990z M294,990c0-1.66,1.34-3,3-3l0,0c1.66,0,3,1.34,3,3l0,0c0,1.66-1.34,3-3,3l0,0
				C295.34,993,294,991.66,294,990z M282,990c0-1.66,1.34-3,3-3l0,0c1.66,0,3,1.34,3,3l0,0c0,1.66-1.34,3-3,3l0,0
				C283.34,993,282,991.66,282,990z M270,990c0-1.66,1.34-3,3-3l0,0c1.66,0,3,1.34,3,3l0,0c0,1.66-1.34,3-3,3l0,0
				C271.34,993,270,991.66,270,990z M258,990c0-1.66,1.34-3,3-3l0,0c1.66,0,3,1.34,3,3l0,0c0,1.66-1.34,3-3,3l0,0
				C259.34,993,258,991.66,258,990z M246,990c0-1.66,1.34-3,3-3l0,0c1.66,0,3,1.34,3,3l0,0c0,1.66-1.34,3-3,3l0,0
				C247.34,993,246,991.66,246,990z M234,990c0-1.66,1.34-3,3-3l0,0c1.66,0,3,1.34,3,3l0,0c0,1.66-1.34,3-3,3l0,0
				C235.34,993,234,991.66,234,990z"/>
		</g>
		<g>
			<g>
				<circle fill="#FFFFFF" cx="237" cy="990" r="11.279"/>
			</g>
			<g>
				<path fill="#0099FF" d="M237,1002.779c7.046,0,12.779-5.733,12.779-12.779s-5.733-12.779-12.779-12.779
					s-12.779,5.733-12.779,12.779S229.954,1002.779,237,1002.779S229.954,1002.779,237,1002.779z M237,980.221
					c5.394,0,9.779,4.386,9.779,9.779s-4.386,9.779-9.779,9.779s-9.779-4.386-9.779-9.779S231.606,980.221,237,980.221
					S231.606,980.221,237,980.221z"/>
			</g>
		</g>
		<g>
			<g>
				<path fill="#0099FF" d="M395.174,1009.373c2.51-0.094,6.03-0.145,11.332,0.047c2.457,0.094,3.033-0.918,3.855-5.217
					c0.359-1.865,1.784-0.872,3.807-1.443c1.835-0.723,2.173-5.114,2.173-5.114c0.021-0.989,0.553-1.013,0.867-0.867
					c7.181,3.037,14.772-1.565,14.943-0.773c1.322,3.628,4.94,3.352,5.4,2.414c-0.099,1.636,2.409,2.985,3.178,2.602
					c2.771-1.468,2.822-2.531,4.749-3.206c3.52-1.52,2.77-3.169,6.145-3.352c2.461-0.132,3.277-0.539,3.858-1.06
					c2.555-2.503,0.337-5.831-1.205-6.942c0.577-2.602-3.183-5.771-4.05-7.94c1.158-0.023,2.92-0.291,5.639-1.214
					c1.421-0.488,1.083,0.225,3.567-0.028c3.352-0.3,4.632-0.647,5.69-1.13c0.619-0.286,3.858-0.216,5.541-0.797
					c5.354-0.773,4.51-5.592,4.388-6.052c-0.047-0.192-0.099-0.192-1.097-0.192c-1.351,0.099-3.77-0.604-5.747-0.285
					c-0.769,0.094-1.979-0.244-3.854,0c-2.344-0.413-4.055,0.211-6.78-0.76c-0.408-0.122-0.321,0.268-1.226,0.183
					c-0.483-0.052-0.422-0.436-1.843-0.267c-1.626,0.188-3.703,0.019-5.676,0.019c-1.979,0-3.521-0.403-8.34-0.812
					c-1.973-0.173-3.522-1.063-4.964-0.342c-2.198,1.097-9.834,4.435-18.028,8.484c-0.173,0.084-0.895,0.492-1.35-0.581
					c-0.919-1.702-1.448-1.205-4.678-1.106c-2.309-0.094-0.596-1.865-3.132-1.81c-3.904,0.085-5.438,0.408-11.137,0.291
					c-2.316-0.047-2.944-0.132-2.986,1.505v34.683C394.211,1008.839,394.455,1009.373,395.174,1009.373z"/>
			</g>
			<g>
				<path fill="#FFFFFF" d="M473.894,970.275c0.141,1.532-2.7,1.157-3.829,0.928c-0.676-0.131-1.182-1.2-0.507-1.443l4.19,0.384
					C473.81,970.139,473.903,970.242,473.894,970.275z"/>
			</g>
			<g>
				<path fill="#FFFFFF" d="M451.3,988.167c-1.641,0.249-1.49,0.924-2.372,0.807c-1.162-0.164-0.121-0.604-4.102-0.507
					c-1.152,0-1.781-0.079-2.555,0.408c-0.384-0.318-1.301-0.75-1.926-0.197c-1.444-0.29-0.934-0.459-3.378,0.099
					c-3.293,0.75-3.949-0.595-5.478-1.345c-0.407-0.188-0.68-0.333-1.477-0.211c-6.074,0.735-3.447,0.717-11.868,0.206
					c-2.916-0.554-4.046-2.124-3.924-6.075c0.239-4.481,1.2-3.857,3.661-4.917c9.979-4.435,16.678-8.241,19.279-8.049
					c7.379,0.099,6.028,1.448,15.765,1.158c3.084-0.385,2.99,1.2,4.144,1.013c0.872-0.483,0.154-0.947,3.136-0.676
					c6.052,0.554,7.257-0.478,7.81,0.479c0.74,1.284,0.722,2.091,4.65,1.758c0.323-0.023,0.422-0.033,0.613-0.065
					c0.483-0.117,0.507,0.173,0.038,0.529c-0.385,0.296-3.581,1.847-7.327,1.252c-2.123-0.338-1.015,0.487-4.532,0.487
					c-1.542-0.104-2.503-0.104-2.986-0.201c-1.542,0.586-4.532,0.628-5.501,0.394c-1.179-0.3-1.731-0.68-2.793-0.104
					c-1.058,0.581-3.378,1.378-6.842,0.966c-4.05-0.482-3.834-1.266-4.242-0.966c-0.942,0.718,0.984,2.039-1.013,3.567
					c-1.026,0.787-2.123-2.357-3.136-2.311c-0.604,0.084-0.722,0.637-0.432,1.303c0.137,0.314,1.341,2.1,0.338,2.841
					c-1.641,1.209-4.58-2.409-6.849-0.914c-0.529,0.407,0.038,0.989,0.675,0.914c1.095-0.132,2.944,0.923,3.713,1.594
					c1.013,0.914,3.904,2.311,4.969,2.747c3.76,1.542,5.009,0.389,5.686,1.35c0.577,0.722,1.749-0.365,3.085-0.581
					c2.521-0.413,8.315,1.664,7.763,2.943c-0.211,0.422-0.605,0.39-1.123,0.291C452.229,988.064,452.021,988.055,451.3,988.167z"/>
			</g>
			<g>
				<path fill="#FFFFFF" d="M449.889,991.284c0.582-1.256,0.643-1.425,1.856-1.688c1.064-0.234,4.148,0.675,3.736,1.979
					c-0.316,0.407-1.612,0.431-2.433,0.623C452.182,992.4,449.481,992.705,449.889,991.284z"/>
			</g>
			<g>
				<path fill="#FFFFFF" d="M411.965,1001.484c1.24-0.061,1.385-0.815,1.582-1.622c0.276-1.157-0.581-5.977-0.68-12.052
					c-0.094-6.07,0.099-7.809,0.389-11.086c0.07-0.806,0.72-1.818-0.389-1.875c-3.609-0.201-4.721-0.487-5.304,2.354
					c-0.673,3.328-0.767,16.256,0.101,23.044C407.962,1000.786,407.229,1001.846,411.965,1001.484z"/>
			</g>
		</g>
	</g>
</g>
</svg>
