<?xml version="1.0" encoding="utf-8"?>
<!-- Generator: Adobe Illustrator 15.0.0, SVG Export Plug-In . SVG Version: 6.00 Build 0)  -->
<!DOCTYPE svg PUBLIC "-//W3C//DTD SVG 1.1//EN" "http://www.w3.org/Graphics/SVG/1.1/DTD/svg11.dtd">
<svg version="1.1" id="レイヤー_1" xmlns="http://www.w3.org/2000/svg" xmlns:xlink="http://www.w3.org/1999/xlink" x="0px"
	 y="0px" width="1384px" height="904px" viewBox="0 0 1384 904" enable-background="new 0 0 1384 904" xml:space="preserve">
<link xmlns="http://www.w3.org/1999/xhtml" href='http://fonts.googleapis.com/css?family=Roboto:400,500,400italic' rel='stylesheet' type='text/css' />
<g>
	
		<polygon fill="#FFFFFF" stroke="#956134" stroke-width="4" stroke-linecap="round" stroke-linejoin="round" stroke-miterlimit="10" points="
		202,36 72,36 62,26 62,12 72,2 202,2 	"/>
	
		<polygon fill="#FFFFFF" stroke="#956134" stroke-width="6" stroke-linecap="round" stroke-linejoin="round" stroke-miterlimit="10" points="
		61.5,73.001 61.5,44 3,44 3,218 237,218 237,73.001 	"/>
	<g>
		<text transform="matrix(1 0 0 1 104.1543 27.9995)" fill="#956134" font-family="'Roboto'" font-size="24">2a91fd</text>
	</g>
	<polygon fill="#956134" points="82,2 82,36 72,36 62,26 62,12 72,2 	"/>
	<circle fill="#FFFFFF" cx="72" cy="19" r="5"/>
	<path fill="none" stroke="#956134" stroke-width="4" stroke-linecap="round" stroke-linejoin="round" stroke-miterlimit="10" d="
		M36,44c0-13.253,10.746-24,24-24"/>
	<g>
		<text transform="matrix(1 0 0 1 71.0586 156.0005)" fill="#956134" font-family="'Roboto'" font-size="42">TREE</text>
	</g>
</g>
<g>
	
		<polygon fill="#FFFFFF" stroke="#956134" stroke-width="4" stroke-linecap="round" stroke-linejoin="round" stroke-miterlimit="10" points="
		796,677 666,677 656,667 656,653 666,643 796,643 	"/>
	
		<polygon fill="#FFFFFF" stroke="#956134" stroke-width="6" stroke-linecap="round" stroke-linejoin="round" stroke-miterlimit="10" points="
		655.5,714.001 655.5,685 597,685 597,859 831,859 831,714.001 	"/>
	<g>
		<text transform="matrix(1 0 0 1 698.4414 669)" fill="#956134" font-family="'Roboto'" font-size="24">2df69c</text>
	</g>
	<polygon fill="#956134" points="676,643 676,677 666,677 656,667 656,653 666,643 	"/>
	<circle fill="#FFFFFF" cx="666" cy="660" r="5"/>
	<path fill="none" stroke="#956134" stroke-width="4" stroke-linecap="round" stroke-linejoin="round" stroke-miterlimit="10" d="
		M630,685c0-13.253,10.746-24,24-24"/>
	<g>
		<text transform="matrix(1 0 0 1 665.0586 797)" fill="#956134" font-family="'Roboto'" font-size="42">TREE</text>
	</g>
</g>
<g>
	
		<polygon fill="#FFFFFF" stroke="#22AC38" stroke-width="4" stroke-linecap="round" stroke-linejoin="round" stroke-miterlimit="10" points="
		908,46 778,46 768,36 768,22 778,12 908,12 	"/>
	<g>
		<text transform="matrix(1 0 0 1 807.6641 37.9995)" fill="#22AC38" font-family="'Roboto'" font-size="24">6b3d1e</text>
	</g>
	<polygon fill="#22AC38" points="788,12 788,46 778,46 768,36 768,22 778,12 	"/>
	<circle fill="#FFFFFF" cx="778" cy="29" r="5"/>
	<path fill="none" stroke="#22AC38" stroke-width="4" stroke-linecap="round" stroke-linejoin="round" stroke-miterlimit="10" d="
		M742,54c0-13.253,10.746-24,24-24"/>
	<g>
		
			<polygon fill="#FFFFFF" stroke="#22AC38" stroke-width="6" stroke-linecap="round" stroke-linejoin="round" stroke-miterlimit="10" points="
			771,84.031 771,261 597,261 597,27 713.969,27 		"/>
		<polygon fill="#22AC38" stroke="#22AC38" stroke-width="4" stroke-linejoin="round" stroke-miterlimit="10" points="714,27 
			714,84 771,84 		"/>
	</g>
	<g>
		<text transform="matrix(1 0 0 1 620.9531 215)" fill="#22AC38" font-family="'Roboto'" font-style="italic" font-size="30">“new file”</text>
	</g>
	<g>
		<text transform="matrix(1 0 0 1 631.2847 156.2739)" fill="#22AC38" font-family="'Roboto'" font-size="42">BLOB</text>
	</g>
</g>
<g>
	
		<polygon fill="#FFFFFF" stroke="#22AC38" stroke-width="4" stroke-linecap="round" stroke-linejoin="round" stroke-miterlimit="10" points="
		908,366 778,366 768,356 768,342 778,332 908,332 	"/>
	<g>
		<text transform="matrix(1 0 0 1 812.8906 357.9995)" fill="#22AC38" font-family="'Roboto'" font-size="24">1f7f9a</text>
	</g>
	<polygon fill="#22AC38" points="788,332 788,366 778,366 768,356 768,342 778,332 	"/>
	<circle fill="#FFFFFF" cx="778" cy="349" r="5"/>
	<path fill="none" stroke="#22AC38" stroke-width="4" stroke-linecap="round" stroke-linejoin="round" stroke-miterlimit="10" d="
		M742,374c0-13.253,10.746-24,24-24"/>
	<g>
		
			<polygon fill="#FFFFFF" stroke="#22AC38" stroke-width="6" stroke-linecap="round" stroke-linejoin="round" stroke-miterlimit="10" points="
			771,404.031 771,581 597,581 597,347 713.969,347 		"/>
		<polygon fill="#22AC38" stroke="#22AC38" stroke-width="4" stroke-linejoin="round" stroke-miterlimit="10" points="714,347 
			714,404 771,404 		"/>
	</g>
	<g>
		<text transform="matrix(1 0 0 1 610.8965 535)" fill="#22AC38" font-family="'Roboto'" font-style="italic" font-size="30">“version 2”</text>
	</g>
	<g>
		<text transform="matrix(1 0 0 1 631.2847 476.2734)" fill="#22AC38" font-family="'Roboto'" font-size="42">BLOB</text>
	</g>
</g>
<g>
	
		<polygon fill="#FFFFFF" stroke="#22AC38" stroke-width="4" stroke-linecap="round" stroke-linejoin="round" stroke-miterlimit="10" points="
		1382,686 1252,686 1242,676 1242,662 1252,652 1382,652 	"/>
	<g>
		<text transform="matrix(1 0 0 1 1281.6406 678)" fill="#22AC38" font-family="'Roboto'" font-size="24">1e5d19</text>
	</g>
	<polygon fill="#22AC38" points="1262,652 1262,686 1252,686 1242,676 1242,662 1252,652 	"/>
	<circle fill="#FFFFFF" cx="1252" cy="669" r="5"/>
	<path fill="none" stroke="#22AC38" stroke-width="4" stroke-linecap="round" stroke-linejoin="round" stroke-miterlimit="10" d="
		M1216,694c0-13.253,10.746-24,24-24"/>
	<g>
		
			<polygon fill="#FFFFFF" stroke="#22AC38" stroke-width="6" stroke-linecap="round" stroke-linejoin="round" stroke-miterlimit="10" points="
			1245,724.031 1245,901 1071,901 1071,667 1187.969,667 		"/>
		<polygon fill="#22AC38" stroke="#22AC38" stroke-width="4" stroke-linejoin="round" stroke-miterlimit="10" points="1188,667 
			1188,724 1245,724 		"/>
	</g>
	<g>
		<text transform="matrix(1 0 0 1 1084.8965 855)" fill="#22AC38" font-family="'Roboto'" font-style="italic" font-size="30">“version 1”</text>
	</g>
	<g>
		<text transform="matrix(1 0 0 1 1105.2852 796.2734)" fill="#22AC38" font-family="'Roboto'" font-size="42">BLOB</text>
	</g>
</g>
<line fill="none" stroke="#0099FF" stroke-width="6" stroke-linecap="round" stroke-linejoin="round" stroke-miterlimit="10" x1="357" y1="144" x2="357" y2="784"/>
<g>
	<g>
		
			<line fill="none" stroke="#0099FF" stroke-width="6" stroke-linecap="round" stroke-linejoin="round" x1="237" y1="144" x2="597" y2="144"/>
		<g>
			<circle fill="#0099FF" cx="237" cy="144" r="11.279"/>
		</g>
		<g>
			<circle fill="#0099FF" cx="597" cy="144" r="11.279"/>
		</g>
	</g>
</g>
<g>
	<g>
		
			<line fill="none" stroke="#0099FF" stroke-width="6" stroke-linecap="round" stroke-linejoin="round" x1="357" y1="464" x2="597" y2="464"/>
		<g>
			<circle fill="#0099FF" cx="597" cy="464" r="11.279"/>
		</g>
	</g>
</g>
<g>
	<g>
		
			<line fill="none" stroke="#0099FF" stroke-width="6" stroke-linecap="round" stroke-linejoin="round" x1="357" y1="784" x2="597" y2="784"/>
		<g>
			<circle fill="#0099FF" cx="597" cy="784" r="11.279"/>
		</g>
	</g>
</g>
<g>
	<rect x="417" y="754" fill="#FFFFFF" stroke="#0099FF" stroke-width="4" stroke-miterlimit="10" width="120" height="60"/>
	<g>
		<text transform="matrix(1 0 0 1 452.4834 796.2734)" fill="#0099FF" font-family="'Roboto'" font-size="30">bak</text>
	</g>
</g>
<g>
	<rect x="417" y="434" fill="#FFFFFF" stroke="#0099FF" stroke-width="4" stroke-miterlimit="10" width="120" height="60"/>
	<g>
		<text transform="matrix(1 0 0 1 437.4102 476.2734)" fill="#0099FF" font-family="'Roboto'" font-size="30">git.txt</text>
	</g>
</g>
<g>
	<rect x="417" y="114" fill="#FFFFFF" stroke="#0099FF" stroke-width="4" stroke-miterlimit="10" width="120" height="60"/>
	<g>
		<text transform="matrix(1 0 0 1 424.3223 156.2734)" fill="#0099FF" font-family="'Roboto'" font-size="30">new.jpg</text>
	</g>
</g>
<g>
	<g>
		
			<line fill="none" stroke="#0099FF" stroke-width="6" stroke-linecap="round" stroke-linejoin="round" x1="831" y1="784" x2="1071" y2="784"/>
		<g>
			<circle fill="#0099FF" cx="831" cy="784" r="11.279"/>
		</g>
		<g>
			<circle fill="#0099FF" cx="1071" cy="784" r="11.279"/>
		</g>
	</g>
</g>
<g>
	<rect x="891" y="754" fill="#FFFFFF" stroke="#0099FF" stroke-width="4" stroke-miterlimit="10" width="120" height="60"/>
	<g>
		<text transform="matrix(1 0 0 1 911.4102 796.2734)" fill="#0099FF" font-family="'Roboto'" font-size="30">git.txt</text>
	</g>
</g>
</svg>
