<?xml version="1.0" standalone="no"?>
<!DOCTYPE svg PUBLIC "-//W3C//DTD SVG 1.1//EN" "http://www.w3.org/Graphics/SVG/1.1/DTD/svg11.dtd" >
<svg>
<metadata>
Created by FontForge 20120731 at Sat Oct  6 08:46:50 2012
 By Daniel P. Wright,Vitei South,075-212-2442,080-4023-1337
Copyright(c) 2012 M+ FONTS PROJECT
</metadata>
<defs>
<font id="mplus-1c-thin" horiz-adv-x="1000" >
  <font-face 
    font-family="M+ 1c thin"
    font-weight="100"
    font-stretch="normal"
    units-per-em="1000"
    panose-1="2 11 3 3 2 2 3 2 2 7"
    ascent="860"
    descent="-140"
    x-height="520"
    cap-height="730"
    bbox="29 -230 990 846"
    underline-thickness="50"
    underline-position="-100"
    unicode-range="U+0020-904E"
  />
<missing-glyph horiz-adv-x="364" 
d="M33 0v666h265v-666h-265zM66 33h199v600h-199v-600z" />
    <glyph glyph-name="uni82A6.jp04" unicode="&#x82a6;" unicode="&#xe0103;" 
d="M197 170q-20 -145 -104 -246l-16 12q108 133 108 354v280q361 0 693 50l3 -20q-324 -49 -676 -50v-105h640v-330h-20v55h-628zM930 720v-20h-230v-70h-20v70h-360v-90h-20v90h-230v20h230v95h20v-95h360v95h20v-95h230zM205 425v-135q0 -54 -6 -100h626v235h-620z" />
    <glyph glyph-name="uni82A6.jp04" unicode="&#x82a6;" unicode="&#xe0101;" 
d="M197 170q-20 -145 -104 -246l-16 12q108 133 108 354v280q361 0 693 50l3 -20q-324 -49 -676 -50v-105h640v-330h-20v55h-628zM930 720v-20h-230v-70h-20v70h-360v-90h-20v90h-230v20h230v95h20v-95h360v95h20v-95h230zM205 425v-135q0 -54 -6 -100h626v235h-620z" />
    <glyph glyph-name=".notdef" horiz-adv-x="364" 
d="M33 0v666h265v-666h-265zM66 33h199v600h-199v-600z" />
    <glyph glyph-name="glyph1" horiz-adv-x="0" 
 />
    <glyph glyph-name="glyph2" horiz-adv-x="333" 
 />
    <glyph glyph-name="space" unicode=" " horiz-adv-x="256" 
 />
    <glyph glyph-name="quotesingle" unicode="'" horiz-adv-x="182" 
d="M81 550v220h20v-220h-20z" />
    <glyph glyph-name="comma" unicode="," horiz-adv-x="244" 
d="M146 110h22l-80 -220h-22z" />
    <glyph glyph-name="period" unicode="." horiz-adv-x="222" 
d="M101 0v110h20v-110h-20z" />
    <glyph glyph-name="A" unicode="A" horiz-adv-x="642" 
d="M322 713h-2l-163 -443h328zM493 250h-344l-92 -250h-21l270 730h30l270 -730h-21z" />
    <glyph glyph-name="G" unicode="G" horiz-adv-x="672" 
d="M376 720q-141 0 -225.5 -96.5t-84.5 -258.5t81.5 -258.5t218.5 -96.5q107 0 200 37v343h-280v20h300v-377q-100 -43 -220 -43q-142 0 -231 100t-89 275q0 172 91 273.5t239 101.5q93 0 180 -30v-21q-85 31 -180 31z" />
    <glyph glyph-name="J" unicode="J" horiz-adv-x="507" 
d="M406 730h20v-490q0 -129 -52.5 -189.5t-157.5 -60.5q-90 0 -170 30v21q80 -31 170 -31q98 0 144 55.5t46 174.5v490z" />
    <glyph glyph-name="W" unicode="W" horiz-adv-x="872" 
d="M437 713h-2l-183 -713h-32l-169 730h21l163 -713h2l183 713h32l183 -713h2l163 713h21l-169 -730h-32z" />
    <glyph glyph-name="a" unicode="a" horiz-adv-x="512" 
d="M416 116h-2q-27 -58 -81.5 -92t-126.5 -34q-70 0 -110 40t-40 110q0 27 7 50.5t26.5 48t50.5 42t84 28.5t122 11h70v50q0 77 -33.5 108.5t-116.5 31.5q-100 0 -185 -37v22q83 35 185 35q92 0 131 -37t39 -123v-370h-20v116zM416 300h-70q-270 0 -270 -160
q0 -61 34.5 -95.5t95.5 -34.5q91 0 150.5 56.5t59.5 143.5v90z" />
    <glyph glyph-name="c" unicode="c" horiz-adv-x="492" 
d="M271 510q-60 0 -102.5 -22t-63.5 -61t-30 -79t-9 -88q0 -250 215 -250q71 0 135 26v-21q-66 -25 -135 -25q-114 0 -174.5 68t-60.5 202q0 133 59 201.5t166 68.5q71 0 140 -25v-22q-67 27 -140 27z" />
    <glyph glyph-name="d" unicode="d" horiz-adv-x="557" 
d="M449 93q-26 -46 -77 -74.5t-111 -28.5q-100 0 -155 70.5t-55 199.5q0 130 54.5 200t155.5 70q60 0 111 -28.5t77 -74.5h2v323h20v-750h-20v93h-2zM71 260q0 -121 49 -185.5t141 -64.5q76 0 133 46.5t57 108.5v190q0 62 -57 108.5t-133 46.5q-93 0 -141.5 -63.5
t-48.5 -186.5z" />
    <glyph glyph-name="e" unicode="e" horiz-adv-x="517" 
d="M281 10q82 0 155 32v-22q-75 -30 -155 -30q-235 0 -235 270q0 64 13.5 113.5t35 78.5t51.5 47t58.5 24.5t61.5 6.5q200 0 200 -260v-10h-400q0 -250 215 -250zM66 280h380q-4 230 -180 230q-192 0 -200 -230z" />
    <glyph glyph-name="g" unicode="g" horiz-adv-x="542" 
d="M441 102h-2q-24 -47 -72 -74.5t-111 -27.5q-96 0 -150.5 69t-54.5 191q0 80 18 136t50 83.5t65 39t72 11.5q63 0 111 -27.5t72 -74.5h2v92h20v-500q0 -131 -52.5 -190.5t-167.5 -59.5q-79 0 -140 25v21q65 -26 140 -26q106 0 153 54t47 176v82zM71 260q0 -113 49 -176.5
t136 -63.5q80 0 132.5 46.5t52.5 118.5v160q0 72 -52.5 118.5t-132.5 46.5q-185 0 -185 -250z" />
    <glyph glyph-name="h" unicode="h" horiz-adv-x="542" 
d="M106 412h2q29 48 81.5 83t106.5 35q90 0 130 -50t40 -170v-310h-20v310q0 118 -36 159t-114 41q-64 0 -127 -55t-63 -105v-350h-20v750h20v-338z" />
    <glyph glyph-name="i" unicode="i" horiz-adv-x="282" 
d="M131 0v520h20v-520h-20zM131 650v100h20v-100h-20z" />
    <glyph glyph-name="l" unicode="l" horiz-adv-x="282" 
d="M131 0v750h20v-750h-20z" />
    <glyph glyph-name="n" unicode="n" horiz-adv-x="537" 
d="M101 415h2q28 48 81.5 81.5t106.5 33.5q90 0 130 -50t40 -170v-310h-20v310q0 118 -36 159t-114 41q-66 0 -128 -53t-62 -107v-350h-20v520h20v-105z" />
    <glyph glyph-name="o" unicode="o" horiz-adv-x="542" 
d="M271 10q99 0 152 64.5t53 185.5t-53 185.5t-152 64.5t-152 -64.5t-53 -185.5t53 -185.5t152 -64.5zM271 -10q-107 0 -166 70.5t-59 199.5t59 199.5t166 70.5t166 -70.5t59 -199.5t-59 -199.5t-166 -70.5z" />
    <glyph glyph-name="p" unicode="p" horiz-adv-x="552" 
d="M501 260q0 -129 -55 -199.5t-155 -70.5q-63 0 -113 28t-75 76h-2v-314h-20v740h20v-94h2q25 48 75 76t113 28q101 0 155.5 -70t54.5 -200zM481 260q0 123 -48.5 186.5t-141.5 63.5q-82 0 -136 -48t-54 -117v-170q0 -69 54 -117t136 -48q92 0 141 64.5t49 185.5z" />
    <glyph glyph-name="r" unicode="r" horiz-adv-x="422" 
d="M101 373h2q29 68 91.5 107.5t146.5 39.5h20v-20h-20q-106 0 -173 -64.5t-67 -165.5v-270h-20v520h20v-147z" />
    <glyph glyph-name="s" unicode="s" horiz-adv-x="482" 
d="M66 400q0 59 46.5 94.5t123.5 35.5q85 0 165 -30v-22q-84 32 -165 32q-70 0 -110 -29.5t-40 -80.5q0 -45 32 -73.5t120 -46.5q92 -18 135 -54.5t43 -95.5q0 -65 -48.5 -102.5t-131.5 -37.5q-89 0 -170 40v22q81 -42 170 -42q75 0 117.5 32t42.5 88q0 45 -32.5 78
t-129.5 52q-90 18 -129 50.5t-39 89.5z" />
    <glyph glyph-name="t" unicode="t" horiz-adv-x="487" 
d="M406 480h-205v-340q0 -80 24.5 -105t90.5 -25q41 0 80 17v-22q-37 -15 -80 -15q-77 0 -106 32t-29 118v340h-125v20h125v190h20v-190h205v-20z" />
    <glyph glyph-name="w" unicode="w" horiz-adv-x="782" 
d="M392 501h-2l-149 -501h-30l-160 520h21l153 -501h2l149 501h30l149 -501h2l153 501h21l-160 -520h-30z" />
    <glyph glyph-name="y" unicode="y" horiz-adv-x="532" 
d="M256 37h2l211 483h22l-325 -740h-22l102 232l-205 508h22z" />
    <glyph glyph-name="uni304D" unicode="&#x304d;" 
d="M725 269l1 2q-62 100 -97 183q-263 -9 -519 -9v20q251 0 511 9q-31 80 -49 168q-209 -7 -432 -7v20q222 0 428 7q-12 65 -18 137l20 2q6 -73 18 -138q139 5 281 12l2 -20q-139 -7 -279 -12q19 -92 50 -169q83 3 247 11l2 -20q-79 -4 -241 -10q40 -97 108 -200l-12 -14
q-156 69 -296 69q-121 0 -185.5 -38.5t-64.5 -111.5q0 -180 330 -180q118 0 228 20l4 -20q-111 -20 -232 -20q-350 0 -350 200q0 28 10 54t36 54t83.5 45t140.5 17q126 0 275 -61z" />
    <glyph glyph-name="uni3064" unicode="&#x3064;" 
d="M97 590q279 80 433 80q370 0 370 -310q0 -174 -160 -267t-460 -93v20q295 0 447.5 86.5t152.5 253.5q0 146 -86.5 218t-263.5 72q-151 0 -427 -80z" />
    <glyph glyph-name="uni306E" unicode="&#x306e;" 
d="M90 300q0 181 125.5 295.5t324.5 114.5q161 0 265.5 -99t104.5 -251q0 -159 -80 -258.5t-219 -111.5l-2 20q130 11 205.5 105t75.5 245q0 143 -99 236.5t-251 93.5h-21q-14 -160 -37.5 -281.5t-49 -193.5t-56.5 -117.5t-58.5 -61.5t-57.5 -16q-64 0 -117 81t-53 199z
M499 689q-174 -12 -281.5 -119.5t-107.5 -269.5q0 -113 48.5 -186.5t101.5 -73.5q24 0 46.5 12.5t52 54t54 109.5t48 190t38.5 283z" />
    <glyph glyph-name="uni3076" unicode="&#x3076;" 
d="M585 698l-1 2h-344v20h490v-20q-132 0 -216 -52t-84 -118q0 -44 26.5 -88.5t90.5 -108.5q70 -70 96.5 -116t26.5 -97q0 -74 -62.5 -122t-157.5 -48q-91 0 -165 41l10 18q69 -39 155 -39q87 0 143.5 42.5t56.5 107.5q0 44 -23.5 86.5t-93.5 112.5q-67 67 -95 115t-28 96
q0 52 46.5 98t128.5 70zM744 792l16 12q64 -98 101 -167l-18 -10q-50 91 -99 165zM868 834l16 12q67 -101 105 -171l-18 -10q-52 93 -103 169zM762 404l16 12q48 -68 92.5 -160t69.5 -173l-20 -6q-25 81 -68.5 170.5t-89.5 156.5zM41 85q93 155 139 328l20 -6
q-48 -177 -141 -332z" />
    <glyph glyph-name="uni3084" unicode="&#x3084;" 
d="M530 777l20 6q28 -107 47 -184q75 21 133 21q88 0 139 -51t51 -139t-54 -139t-146 -51q-67 0 -143 20l6 20q73 -20 137 -20q85 0 132.5 45t47.5 125t-45 125t-125 45q-54 0 -128 -20q36 -151 38 -158l-20 -4q-4 18 -17 72t-20 84q-86 -24 -247 -84q88 -291 154 -537
l-20 -6q-75 280 -153 536q-93 -34 -243 -92l-8 18q144 55 246 93l-72 225l20 6q31 -98 70 -224q150 56 248 85z" />
    <glyph glyph-name="uni30B0" unicode="&#x30b0;" 
d="M747 814l16 12q49 -71 93 -151l-18 -10q-40 72 -91 149zM868 834l16 12q54 -82 95 -155l-18 -10q-40 73 -93 153zM113 337q190 172 217 434l20 -2q-5 -56 -22 -119h472v-10q0 -313 -156 -472t-493 -188l-2 20q329 28 479 178t152 452h-458q-54 -180 -195 -307z" />
    <glyph glyph-name="uni30B8" unicode="&#x30b8;" 
d="M179 -10q322 29 485.5 169.5t215.5 432.5l20 -4q-53 -296 -223.5 -443t-495.5 -175zM717 804l16 12q49 -71 93 -151l-18 -10q-40 72 -91 149zM838 824l16 12q54 -82 95 -155l-18 -10q-40 73 -93 153zM138 450l4 20q135 -24 320 -60l-4 -20q-185 36 -320 60zM178 700l4 20
q172 -27 340 -60l-4 -20q-210 40 -340 60z" />
    <glyph glyph-name="uni30C8" unicode="&#x30c8;" 
d="M874 279l-8 -18q-288 111 -566 176v-477h-20v800h20v-302q283 -67 574 -179z" />
    <glyph glyph-name="uni30D6" unicode="&#x30d6;" 
d="M747 814l16 12q49 -71 93 -151l-16 -9q-1 -312 -152 -479.5t-467 -206.5l-2 20q305 37 452 198.5t149 461.5h-700v20h710q-35 62 -83 134zM868 834l16 12q54 -82 95 -155l-18 -10q-40 73 -93 153z" />
    <glyph glyph-name="uni30DD" unicode="&#x30dd;" 
d="M760 690q0 46 32 78t78 32t78 -32t32 -78t-32 -78t-78 -32q-52 0 -85 40h-275v-550q0 -53 -16.5 -71.5t-63.5 -18.5q-77 0 -152 15l4 20q73 -15 148 -15q38 0 49 11.5t11 58.5v550h-400v20h400v150h20v-150h262q-12 23 -12 50zM71 115q101 167 180 329l18 -8
q-80 -164 -180 -331zM711 435l18 10q81 -140 180 -341l-18 -8q-83 171 -180 339zM960 690q0 38 -26 64t-64 26t-64 -26t-26 -64t26 -64t64 -26t64 26t26 64z" />
    <glyph glyph-name="uni30EA" unicode="&#x30ea;" 
d="M760 730h20v-240q0 -247 -101.5 -366.5t-346.5 -163.5l-4 20q236 41 334 157t98 353v240zM220 300v430h20v-430h-20z" />
    <glyph glyph-name="uni30ED" unicode="&#x30ed;" 
d="M160 40h680v640h-680v-640zM160 20h-20v680h720v-680h-700z" />
    <glyph glyph-name="uni4E00" unicode="&#x4e00;" 
d="M60 370v20h880v-20h-880z" />
    <glyph glyph-name="uni4E8B" unicode="&#x4e8b;" 
d="M510 245h330v115h-330v-115zM510 105h330v120h-330v-120zM510 490h315v120h-315v-120zM175 490h315v120h-315v-120zM940 245v-20h-80v-200h-20v60h-330v-95q0 -38 -15 -46.5t-75 -8.5q-44 0 -140 5v20q96 -5 140 -5q52 0 61 4.5t9 30.5v95h-380v20h380v120h-430v20h430
v115h-380v20h380v90h-315h-20v160h335v90h-420v20h420v75h20v-75h420v-20h-420v-90h335v-160h-335v-90h350v-135h80z" />
    <glyph glyph-name="uni53BB" unicode="&#x53bb;" 
d="M667 258l16 14q137 -158 245 -327l-16 -10q-5 8 -65 94q-402 -58 -747 -69v20q96 4 147 7q105 187 184 403h-361v20h420v240h-350v20h350v130h20v-130h350v-20h-350v-240h420v-20h-478q-83 -224 -181 -402q251 15 563 60q-80 110 -167 210z" />
    <glyph glyph-name="uni6295" unicode="&#x6295;" 
d="M340 610v-20h-130v-307q56 22 126 56l8 -18q-72 -36 -134 -60v-231q0 -60 -9.5 -75t-50.5 -15q-40 0 -91 5l2 20q51 -5 89 -5q30 0 35 9t5 61v223q-68 -25 -138 -43l-4 20q71 18 142 45v315h-140v20h140v190h20v-190h130zM480 750v-55q0 -106 -42 -170t-134 -99l-8 18
q86 32 125 91.5t39 159.5v75h310v-275q0 -15 5 -17.5t35 -2.5h52t34 5.5t23 9.5t11.5 23t9 34.5t5.5 53.5l20 -2q-4 -38 -7 -58.5t-10.5 -39t-15.5 -26t-27 -13t-38.5 -6.5t-56.5 -1t-48.5 6.5t-11.5 33.5v255h-270zM417 320l16 10q78 -123 212 -219q134 99 208 259h-503v20
h525v-20q-74 -165 -213 -271q129 -89 286 -140l-6 -18q-168 56 -297 146q-139 -98 -343 -147l-4 20q200 49 330 139q-132 96 -211 221z" />
    <glyph glyph-name="uni6700" unicode="&#x6700;" 
d="M160 515h-20v255h720v-255h-700zM160 635v-100h680v100h-680zM160 655h680v95h-680v-95zM155 170h285v125h-285v-125zM440 43q-218 -47 -399 -68l-2 20q69 9 96 13v417h-85v20h900v-20h-490v-510h-20v128zM440 63v87h-285v-140q135 21 285 53zM440 425h-285v-110h285v110
zM561 286l18 8q62 -128 148 -206q105 93 152 232h-379v20h400v-20q-48 -146 -158 -246q84 -72 201 -115l-6 -18q-122 44 -210 121q-93 -78 -224 -121l-6 18q126 42 215 116q-90 84 -151 211z" />
    <glyph glyph-name="uni7A3F" unicode="&#x7a3f;" 
d="M500 70h280v160h-280v-160zM500 50v-50h-20v250h320v-200h-300zM460 450h360v150h-360v-150zM460 430h-20v190h400v-190h-380zM370 330v-400h-20v420h580v-325q0 -60 -9.5 -75t-50.5 -15q-18 0 -91 5l2 20q69 -5 89 -5q30 0 35 8.5t5 61.5v305h-540zM340 720h290v90h20
v-90h290v-20h-600v20zM360 540v-20h-144q66 -148 113 -256l-18 -8q-28 65 -101 228v-564h-20v551q-45 -173 -141 -341l-18 10q105 183 150 380h-131v20h140v193q-72 -15 -129 -23l-2 20q135 19 278 60l6 -20q-70 -20 -133 -33v-197h150z" />
    <glyph glyph-name="uni89A7" unicode="&#x89a7;" 
d="M125 585v-70h170v70h-170zM125 675v-70h325v70h-325zM125 695h170v70h-170v-70zM190 95h-20v350h660v-350h-240v-110q0 -29 19.5 -34.5t130.5 -5.5h37.5t29.5 2t24 2t17.5 7t14 9.5t9 15.5t7 20.5t4 29t4.5 35t3 45.5l20 -2q-4 -51 -6.5 -76t-10.5 -50t-16 -33t-29.5 -16
t-43 -8.5t-64.5 -0.5q-117 0 -143.5 8.5t-26.5 51.5v110h-161q-12 -67 -98 -115.5t-220 -64.5l-2 20q125 15 205.5 58t93.5 102h-198zM190 205v-90h620v90h-620zM190 315v-90h620v90h-620zM190 335h620v90h-620v-90zM500 765h-185v-70h155v-110h-155v-70h195v-20h-385v-40
h-20v330h395v-20zM493 627q94 85 138 197l18 -8q-12 -29 -32 -66h313v-20h-325q-40 -64 -98 -117zM565 570v20h335v-20h-335z" />
    <glyph glyph-name="uni8A18" unicode="&#x8a18;" 
d="M120 -35v-50h-20v295h300v-245h-280zM120 -15h260v205h-260v-205zM875 340v70h-370v-335q0 -76 7 -89t49 -16q55 -5 119 -5q52 0 129 5q71 5 85 34.5t26 201.5l20 -2q-12 -177 -29 -212.5t-100 -41.5q-78 -5 -131 -5q-66 0 -121 5q-53 4 -63.5 23.5t-10.5 101.5v355h390
v300h-400v20h420v-410h-20zM100 745v20h300v-20h-300zM70 610v20h360v-20h-360zM105 470v20h290v-20h-290zM105 330v20h290v-20h-290z" />
    <glyph glyph-name="uni8FD1" unicode="&#x8fd1;" 
d="M229 91q-55 -82 -163 -159l-12 16q114 82 166 165v287h-160v20h180v-307q43 -81 119 -112t231 -31h340v-20h-340q-154 0 -234.5 31t-126.5 110zM910 535v-20h-170v-470h-20v470h-295q-9 -150 -36 -245t-81 -176l-16 12q43 64 67 131t37.5 186.5t13.5 306.5q242 0 457 60
l6 -20q-204 -57 -443 -60q0 -106 -4 -175h484zM83 753l14 14q88 -87 161 -170l-16 -14q-85 97 -159 170z" />
    <glyph glyph-name="uni904E" unicode="&#x904e;" 
d="M580 480v170h245v105h-410v-275h165zM600 480h225v150h-225v-150zM475 165v-65h-20v275h330v-210h-310zM219 91q-52 -80 -153 -159l-12 16q103 81 156 165v287h-150v20h170v-307q43 -81 119 -112t231 -31h350v-20h-350q-154 0 -234.5 31t-126.5 110zM895 140v320h-550
v-420h-20v440h70v295h450v-295h70v-340q0 -57 -11.5 -73.5t-58.5 -16.5q-37 0 -111 5l2 20q98 -5 109 -5q36 0 43 9t7 61zM765 185v170h-290v-170h290zM73 753l14 14q88 -87 161 -170l-16 -14q-85 97 -159 170z" />
    <glyph glyph-name="uni304B_uni309A.liga" 
d="M733 561q53 -81 113 -191.5t98 -200.5l-18 -8q-39 91 -97.5 200.5t-111.5 187.5zM660 360q0 -177 -41.5 -278.5t-98.5 -101.5q-69 0 -194 61l8 18q120 -59 186 -59q20 0 40 22t38.5 64t30 114t11.5 160v54.5t-2 42.5t-2.5 35t-7.5 24.5t-10 19t-17 11.5t-22 8t-31.5 2.5
t-38.5 2.5h-49h-113q-84 -321 -218 -585l-18 10q133 261 216 575h-207v20h212q28 108 48 222l20 -4q-22 -122 -47 -218h107q42 0 64.5 -0.5t47.5 -4.5t36.5 -8t23.5 -18t16 -26t7.5 -39.5t4 -52.5t0.5 -71zM910 690q0 38 -26 64t-64 26t-64 -26t-26 -64t26 -64t64 -26t64 26
t26 64zM930 690q0 -46 -32 -78t-78 -32t-78 32t-32 78t32 78t78 32t78 -32t32 -78z" />
    <glyph glyph-name="uni304D_uni309A.liga" 
d="M879 475l2 -20q-79 -4 -241 -10q40 -97 108 -200l-12 -14q-156 69 -296 69q-121 0 -185.5 -38.5t-64.5 -111.5q0 -180 330 -180q118 0 228 20l4 -20q-111 -20 -232 -20q-350 0 -350 200q0 28 10 54t36 54t83.5 45t140.5 17q126 0 275 -61l1 2q-62 100 -97 183
q-262 -9 -519 -9v20q251 0 511 9q-30 75 -49 170q-224 -9 -432 -9v20q206 0 428 9q-12 63 -18 135l20 2q6 -73 18 -136q5 0 75.5 3.5t106.5 5.5q-10 20 -10 46q0 46 32 78t78 32t78 -32t32 -78t-32 -78t-78 -32q-55 0 -88 44q-28 -2 -60 -3.5t-70.5 -3t-59.5 -2.5
q18 -92 50 -171q83 3 247 11zM950 710q0 38 -26 64t-64 26t-64 -26t-26 -64t26 -64t64 -26t64 26t26 64z" />
    <glyph glyph-name="uni304F_uni309A.liga" 
d="M633 798l14 -16q-196 -168 -399 -310q-58 -41 -73 -56t-15 -36q0 -19 12.5 -32t62.5 -48q193 -134 442 -363l-14 -14q-241 221 -439 361q-31 22 -40.5 29t-23.5 20t-17 23t-3 24q0 28 18 46.5t79 61.5q187 130 396 310zM815 485q0 39 -28 67t-67 28t-67 -28t-28 -67
t28 -67t67 -28t67 28t28 67zM835 485q0 -47 -34 -81t-81 -34t-81 34t-34 81t34 81t81 34t81 -34t34 -81z" />
    <glyph glyph-name="uni3051_uni309A.liga" 
d="M930 540h-210v-180q0 -90 -6.5 -148t-21 -103.5t-44 -73.5t-70 -48t-105.5 -37l-6 20q51 14 82.5 26t60.5 32t44 45t26.5 65.5t15.5 93t4 128.5v180h-350v20h350v200h20v-200h210v-20zM170 753l20 -6q-50 -189 -50 -397t50 -397l-20 -6q-50 189 -50 403t50 403zM970 720
q0 38 -26 64t-64 26t-64 -26t-26 -64t26 -64t64 -26t64 26t26 64zM990 720q0 -46 -32 -78t-78 -32t-78 32t-32 78t32 78t78 32t78 -32t32 -78z" />
    <glyph glyph-name="uni3053_uni309A.liga" 
d="M263 397l14 -14q-127 -124 -127 -203q0 -82 95 -131t255 -49q85 0 178.5 11.5t148.5 28.5l6 -20q-56 -17 -151.5 -28.5t-181.5 -11.5q-169 0 -269.5 54.5t-100.5 145.5q0 89 133 217zM220 700v20h550v-20h-550zM905 455q0 39 -28 67t-67 28t-67 -28t-28 -67t28 -67
t67 -28t67 28t28 67zM925 455q0 -47 -34 -81t-81 -34t-81 34t-34 81t34 81t81 34t81 -34t34 -81z" />
    <glyph glyph-name="uni30AB_uni309A.liga" 
d="M389 590h-274v20h275q5 92 5 180h20q0 -107 -4 -180h374q-40 32 -40 85q0 46 32 78t78 32t78 -32t32 -78t-32 -78t-78 -32q-21 0 -40 8q0 -260 -14.5 -388.5t-44.5 -171.5t-91 -43q-84 0 -176 10l2 20q92 -10 174 -10q38 0 59 17t39 75.5t25 175.5t7 312h-385
q-15 -238 -79 -373t-210 -245l-12 16q68 51 112.5 100t81.5 118t57 162.5t29 221.5zM945 695q0 37 -26.5 63.5t-63.5 26.5t-63.5 -26.5t-26.5 -63.5t26.5 -63.5t63.5 -26.5t63.5 26.5t26.5 63.5z" />
    <glyph glyph-name="uni30AD_uni309A.liga" 
d="M530 -69l-20 -2l-22 313l-398 -12v20l396 12l-21 300l-335 -12v20l333 12l-13 187l20 2l13 -189l367 13v-20l-365 -13l21 -299l384 12v-20l-382 -12q3 -52 10.5 -156t11.5 -156zM965 720q0 35 -25 60t-60 25t-60 -25t-25 -60t25 -60t60 -25t60 25t25 60zM985 720
q0 -44 -30.5 -74.5t-74.5 -30.5t-74.5 30.5t-30.5 74.5t30.5 74.5t74.5 30.5t74.5 -30.5t30.5 -74.5z" />
    <glyph glyph-name="uni30AF_uni309A.liga" 
d="M330 771l20 -2q-5 -56 -22 -119h472v-10q0 -313 -156 -472t-493 -188l-2 20q329 28 479 178t152 452h-458q-54 -180 -195 -307l-14 14q190 172 217 434zM965 740q0 35 -25 60t-60 25t-60 -25t-25 -60t25 -60t60 -25t60 25t25 60zM985 740q0 -44 -30.5 -74.5t-74.5 -30.5
t-74.5 30.5t-30.5 74.5t30.5 74.5t74.5 30.5t74.5 -30.5t30.5 -74.5z" />
    <glyph glyph-name="uni30B1_uni309A.liga" 
d="M920 580h-280q-1 -281 -92 -423.5t-296 -186.5l-4 20q197 42 284 180t88 410h-390q-47 -139 -153 -257l-14 14q83 92 128 196.5t59 237.5l20 -2q-9 -91 -33 -169h683v-20zM965 735q0 35 -25 60t-60 25t-60 -25t-25 -60t25 -60t60 -25t60 25t25 60zM985 735
q0 -43 -30.5 -74t-74.5 -31t-74.5 31t-30.5 74t30.5 74t74.5 31t74.5 -31t30.5 -74z" />
    <glyph glyph-name="uni30B3_uni309A.liga" 
d="M775 45v590h-650v20h670v-630h-670v20h650zM965 740q0 35 -25 60t-60 25t-60 -25t-25 -60t25 -60t60 -25t60 25t25 60zM985 740q0 -44 -30.5 -74.5t-74.5 -30.5t-74.5 30.5t-30.5 74.5t30.5 74.5t74.5 30.5t74.5 -30.5t30.5 -74.5z" />
    <glyph glyph-name="uni30BB_uni309A.liga" 
d="M320 502l573 103l4 -20q-24 -105 -93 -199t-164 -150l-10 18q89 53 154.5 140.5t90.5 186.5l-555 -99v-267q0 -49 2 -79t11 -55t21 -37t37 -21t55 -11t79 -2q174 0 354 25l2 -20q-183 -25 -356 -25q-61 0 -98 5.5t-64 18t-39.5 39.5t-18 64t-5.5 98v264l-243 -44l-4 20
l247 44v261h20v-258zM965 740q0 35 -25 60t-60 25t-60 -25t-25 -60t25 -60t60 -25t60 25t25 60zM985 740q0 -44 -30.5 -74.5t-74.5 -30.5t-74.5 30.5t-30.5 74.5t30.5 74.5t74.5 30.5t74.5 -30.5t30.5 -74.5z" />
    <glyph glyph-name="uni30C4_uni309A.liga" 
d="M842 598l20 -2q-31 -289 -167.5 -431t-432.5 -195l-4 20q289 51 421 188.5t163 419.5zM420 703q46 -163 90 -351l-20 -4q-39 171 -90 349zM140 663q38 -124 90 -331l-20 -4q-53 210 -90 329zM965 740q0 35 -25 60t-60 25t-60 -25t-25 -60t25 -60t60 -25t60 25t25 60z
M985 740q0 -44 -30.5 -74.5t-74.5 -30.5t-74.5 30.5t-30.5 74.5t30.5 74.5t74.5 30.5t74.5 -30.5t30.5 -74.5z" />
    <glyph glyph-name="uni30C8_uni309A.liga" 
d="M856 251q-288 111 -566 176v-477h-20v800h20v-302q283 -67 574 -179zM805 650q0 35 -25 60t-60 25t-60 -25t-25 -60t25 -60t60 -25t60 25t25 60zM825 650q0 -44 -30.5 -74.5t-74.5 -30.5t-74.5 30.5t-30.5 74.5t30.5 74.5t74.5 30.5t74.5 -30.5t30.5 -74.5z" />
    <glyph glyph-name="uni31F7_uni309A.liga" 
d="M890 605q0 35 -25 60t-60 25t-60 -25t-25 -60t25 -60t60 -25t60 25t25 60zM910 605q0 -43 -31 -74t-74 -31q-29 0 -55 16q-4 -242 -126 -372.5t-371 -161.5l-2 20q243 30 360 158t119 366h-558v20h546q-18 28 -18 59q0 43 31 74t74 31t74 -31t31 -74z" />
    <glyph glyph-name="uni6F23.jp04" 
d="M485 460h195v135h-195v-135zM485 285h195v155h-195v-155zM485 265h-20v350h215v95h-265v20h265v80h20v-80h250v-20h-250v-95h215v-350h-215v-100h250v-20h-250v-135h-20v135h-260v20h260v100h-195zM895 460v135h-195v-135h195zM895 440h-195v-155h195v155zM213 628
q-70 75 -145 140l14 14q83 -74 145 -140zM188 398q-67 71 -159 149l12 16q86 -73 161 -151zM79 -60l-18 10q78 141 124 303l20 -6q-49 -169 -126 -307zM373 638q-64 66 -140 135l14 14q68 -60 140 -135zM373 428q-64 66 -140 135l14 14q68 -60 140 -135zM950 -50h-300
q-122 0 -188 31t-103 106q-44 -80 -133 -155l-12 16q93 78 136 164v203h-115v20h135v-223q34 -79 96 -110.5t184 -31.5h300v-20z" />
    <glyph glyph-name="twodotenleader.vert" orientation="v" 
d="M490 50v120h20v-120h-20zM490 550v120h20v-120h-20z" />
    <glyph glyph-name="ellipsis.vert" orientation="v" 
d="M490 633v120h20v-120h-20zM490 300v120h20v-120h-20zM490 -33v120h20v-120h-20z" />
    <glyph glyph-name="uni3001.vert" orientation="v" 
d="M702 737l14 15q113 -98 211 -211l-16 -13q-97 112 -209 209z" />
    <glyph glyph-name="uni3002.vert" orientation="v" 
d="M660 640q0 -50 35 -85t85 -35t85 35t35 85t-35 85t-85 35t-85 -35t-35 -85zM640 640q0 58 41 99t99 41t99 -41t41 -99t-41 -99t-99 -41t-99 41t-41 99z" />
    <glyph glyph-name="uni3008.vert" orientation="v" 
d="M940 -39l-440 280l-440 -280v24l440 280l440 -280v-24z" />
    <glyph glyph-name="uni3009.vert" orientation="v" 
d="M940 759v-24l-440 -280l-440 280v24l440 -280z" />
    <glyph glyph-name="uni300A.vert" orientation="v" 
d="M940 -39l-440 280l-440 -280v24l440 280l440 -280v-24zM940 81l-440 280l-440 -280v24l440 280l440 -280v-24z" />
    <glyph glyph-name="uni300B.vert" orientation="v" 
d="M940 759v-24l-440 -280l-440 280v24l440 -280zM940 639v-24l-440 -280l-440 280v24l440 -280z" />
    <glyph glyph-name="uni300C.vert" orientation="v" 
d="M960 280v-350h-20v330h-730v20h750z" />
    <glyph glyph-name="uni300D.vert" orientation="v" 
d="M40 440v350h20v-330h730v-20h-750z" />
    <glyph glyph-name="uni300E.vert" orientation="v" 
d="M200 290v-70h670v-270h70v340h-740zM180 290v20h780v-380h-110v270h-670v90z" />
    <glyph glyph-name="uni300F.vert" orientation="v" 
d="M800 430v70h-670v270h-70v-340h740zM820 430v-20h-780v380h110v-270h670v-90z" />
    <glyph glyph-name="uni3010.vert" orientation="v" 
d="M60 230h880v-270q-86 95 -201.5 147.5t-238.5 52.5t-238.5 -52.5t-201.5 -147.5v270z" />
    <glyph glyph-name="uni3011.vert" orientation="v" 
d="M60 490v270q86 -95 201.5 -147.5t238.5 -52.5t238.5 52.5t201.5 147.5v-270h-880z" />
    <glyph glyph-name="uni3014.vert" orientation="v" 
d="M923 -15l-112 290h-622l-112 -290h-22l120 310h650l120 -310h-22z" />
    <glyph glyph-name="uni3015.vert" orientation="v" 
d="M923 735h22l-120 -310h-650l-120 310h22l112 -290h622z" />
    <glyph glyph-name="uni3016.vert" orientation="v" 
d="M60 250h880v-290q-86 86 -201.5 133t-238.5 47t-238.5 -47t-201.5 -133v290zM500 160q115 0 224.5 -40.5t195.5 -114.5v225h-840v-225q86 74 195.5 114.5t224.5 40.5z" />
    <glyph glyph-name="uni3017.vert" orientation="v" 
d="M60 470v290q86 -86 201.5 -133t238.5 -47t238.5 47t201.5 133v-290h-880zM500 560q-115 0 -224.5 40.5t-195.5 114.5v-225h840v225q-86 -74 -195.5 -114.5t-224.5 -40.5z" />
    <glyph glyph-name="uni3018.vert" orientation="v" 
d="M253 215l-81 -230h-117l120 340h650l120 -340h-117l-81 230h-494zM189 305l-106 -300h75l81 230h522l81 -230h75l-106 300h-622z" />
    <glyph glyph-name="uni3019.vert" orientation="v" 
d="M253 505h494l81 230h117l-120 -340h-650l-120 340h117zM189 415h622l106 300h-75l-81 -230h-522l-81 230h-75z" />
    <glyph glyph-name="uni301C.vert" orientation="v" 
d="M529 783q-124 -90 -124 -233q0 -106 88 -197q82 -85 82 -183q0 -133 -116 -217l12 -16q124 90 124 233q0 106 -88 197q-82 85 -82 183q0 133 116 217z" />
    <glyph glyph-name="uni3041.vert" orientation="v" 
d="M620 466q127 0 200.5 -56.5t73.5 -153.5q0 -87 -61.5 -146.5t-170.5 -79.5l-4 20q103 18 159.5 72t56.5 134q0 64 -37 109.5t-105 65.5q-50 -161 -154 -261t-198 -100q-54 0 -84 34t-30 96q0 83 56.5 148.5t151.5 95.5v138h-182v20h182v110h20v-110h374v-20h-374v-132
q62 16 126 16zM712 436q-47 10 -92 10q-66 0 -126 -17v-302q68 42 126.5 122t91.5 187zM474 423q-86 -29 -137 -88.5t-51 -134.5q0 -53 24 -81.5t70 -28.5q44 0 94 26v307z" />
    <glyph glyph-name="uni3043.vert" orientation="v" 
d="M771 611l18 10q53 -92 83 -220.5t30 -264.5h-20q0 132 -29.5 258.5t-81.5 216.5zM282 352q0 149 32 267l20 -6q-32 -117 -32 -261q0 -119 44 -198.5t90 -79.5q32 0 80.5 57t86.5 160l18 -6q-39 -107 -92 -169t-93 -62q-57 0 -105.5 87.5t-48.5 210.5z" />
    <glyph glyph-name="uni3045.vert" orientation="v" 
d="M298 442q210 48 346 48q67 0 114 -13.5t70 -37.5t32.5 -49t9.5 -54q0 -115 -113.5 -194t-303.5 -96l-2 20q179 16 289 90t110 180q0 134 -206 134q-136 0 -342 -48zM410 662l4 20q184 -32 334 -32v-20q-152 0 -338 32z" />
    <glyph glyph-name="uni3047.vert" orientation="v" 
d="M792 514v-20l-237 -208l1 -1q14 5 32 5q37 0 58.5 -26t39.5 -93q17 -63 36 -80t66 -17q53 0 109 16l6 -20q-60 -16 -115 -16q-56 0 -80 21.5t-42 89.5q-17 63 -34 84t-44 21q-25 0 -45.5 -10.5t-72.5 -52.5t-187 -159l-14 16l493 428l-1 2h-445v20h476zM410 662l4 20
q184 -32 334 -32v-20q-152 0 -338 32z" />
    <glyph glyph-name="uni3049.vert" orientation="v" 
d="M791 608l14 16q74 -64 137 -154l-16 -12q-61 86 -135 150zM510 403q51 7 94 7q122 0 194 -51.5t72 -118.5q0 -89 -57.5 -140.5t-167.5 -61.5l-2 20q101 9 154 55.5t53 126.5q0 59 -66.5 104.5t-179.5 45.5q-43 0 -94 -7v-239q0 -90 -90 -90q-62 0 -112 45.5t-50 100.5
q0 67 61 123t171 77v174h-206v20h206v118h20v-118h246v-20h-246v-171zM490 380q-101 -19 -156.5 -69.5t-55.5 -110.5q0 -47 45 -86.5t97 -39.5q38 0 54 16t16 54v236z" />
    <glyph glyph-name="uni3063.vert" orientation="v" 
d="M257 546q223 64 347 64q298 0 298 -250q0 -140 -128.5 -215t-369.5 -75v20q235 0 356.5 68.5t121.5 201.5q0 230 -278 230q-115 0 -341 -64z" />
    <glyph glyph-name="uni3083.vert" orientation="v" 
d="M602 693l20 6q10 -36 37 -145q59 16 105 16q71 0 112.5 -41.5t41.5 -112.5t-43.5 -112.5t-118.5 -41.5q-52 0 -115 16l6 20q60 -16 109 -16q67 0 104.5 35.5t37.5 98.5t-35.5 98.5t-98.5 35.5q-39 0 -100 -16q15 -57 30 -124l-20 -4q-5 22 -29 123q-61 -18 -194 -66
q63 -205 123 -428l-20 -6q-66 247 -121 427q-58 -21 -193 -73l-8 18q159 61 195 74q-4 15 -57 178l20 6q38 -118 56 -177q133 48 194 66q-15 61 -38 145z" />
    <glyph glyph-name="uni3085.vert" orientation="v" 
d="M642 712h20v-110q120 -2 184 -56t64 -154q0 -99 -69 -154t-193 -56q-16 -61 -55.5 -97.5t-113.5 -61.5l-6 18q67 23 103 55.5t52 85.5q-70 4 -131 40t-94 93l18 10q31 -54 88.5 -87t123.5 -36q9 47 9 110v270q-158 -4 -257 -121t-99 -301h-20v464h20v-313h1
q36 132 130.5 210t224.5 81v110zM662 582v-270q0 -64 -9 -110q115 2 176 51t61 139t-59 139t-169 51z" />
    <glyph glyph-name="uni3087.vert" orientation="v" 
d="M282 176q0 22 6.5 41.5t23.5 41t55 34.5t93 13t118 -22v420h20v-158h278v-20h-278v-249q124 -48 284 -173l-12 -16q-150 118 -272 167v-47q0 -87 -33.5 -128.5t-104.5 -41.5q-52 0 -89 12.5t-55.5 33.5t-26 43.5t-7.5 48.5zM578 263q-66 23 -118 23q-158 0 -158 -110
q0 -118 158 -118q62 0 90 35.5t28 114.5v55z" />
    <glyph glyph-name="uni30A1.vert" orientation="v" 
d="M284 614v20h616v-20q-50 -188 -228 -263l-8 18q164 68 215 245h-595zM546 528h20q0 -205 -52.5 -317t-169.5 -156l-8 18q110 42 160 150t50 305z" />
    <glyph glyph-name="uni30A3.vert" orientation="v" 
d="M267 354q174 25 340 109.5t261 198.5l16 -12q-95 -112 -246 -193v-417h-20v407q-168 -87 -349 -113z" />
    <glyph glyph-name="uni30A5.vert" orientation="v" 
d="M850 464v94h-540v-214h-20v234h272v134h20v-134h288v-114q0 -184 -115.5 -293.5t-325.5 -124.5l-2 20q202 14 312.5 118t110.5 280z" />
    <glyph glyph-name="uni30A7.vert" orientation="v" 
d="M590 122h294v-20h-608v20h294v476h-270v20h560v-20h-270v-476z" />
    <glyph glyph-name="uni30A9.vert" orientation="v" 
d="M908 570v-20h-198v-406q0 -44 -15 -59t-59 -15q-71 0 -137 8l2 20q64 -8 135 -8q35 0 44.5 9.5t9.5 44.5v379q-83 -102 -190.5 -193.5t-218.5 -154.5l-10 18q114 64 223.5 158.5t191.5 198.5h-418v20h422v134h20v-134h198z" />
    <glyph glyph-name="uni30C3.vert" orientation="v" 
d="M394 74q250 44 354 168.5t118 398.5l20 -2q-14 -279 -123 -409.5t-365 -175.5zM282 605l20 6q33 -108 72 -265l-20 -4q-36 147 -72 263zM506 637l20 6q34 -121 72 -281l-20 -4q-35 149 -72 279z" />
    <glyph glyph-name="uni30E3.vert" orientation="v" 
d="M566 42l-20 -4l-81 433l-223 -49l-4 20l223 48l-35 188l20 4l35 -188l421 92l4 -20q-13 -91 -63.5 -173t-121.5 -129l-10 16q66 42 113 119t61 163l-400 -87z" />
    <glyph glyph-name="uni30E5.vert" orientation="v" 
d="M715 122l46 476h-421v20h443l-48 -496h173v-20h-656v20h463z" />
    <glyph glyph-name="uni30E7.vert" orientation="v" 
d="M292 114h542v260h-510v20h510v212h-542v20h562v-532h-562v20z" />
    <glyph glyph-name="uni30EE.vert" orientation="v" 
d="M318 614v-230h-20v250h572v-114q0 -214 -112 -332.5t-329 -133.5l-2 20q208 14 315.5 128t107.5 318v94h-532z" />
    <glyph glyph-name="uni30F5.vert" orientation="v" 
d="M514 712h20q0 -72 -3 -134h323v-10q0 -215 -12 -321t-36 -141.5t-74 -35.5q-71 0 -141 8l2 20q70 -8 139 -8q39 0 58.5 27.5t31.5 131t12 309.5h-304q-11 -193 -62.5 -303t-169.5 -199l-12 16q73 55 115.5 110t71.5 147t37 229h-218v20h219q3 62 3 134z" />
    <glyph glyph-name="uni30F6.vert" orientation="v" 
d="M924 570v-20h-222q-1 -226 -75.5 -343.5t-236.5 -152.5l-4 20q156 33 225.5 144.5t70.5 331.5h-306q-39 -118 -125 -213l-14 14q67 75 102.5 157t46.5 189l20 -2q-7 -66 -24 -125h542z" />
    <glyph glyph-name="uni30FC.vert" orientation="v" 
d="M510 760h-20v-800h20v800z" />
    <glyph glyph-name="uniFF08.vert" orientation="v" 
d="M500 235q264 0 440 -209v-31q-173 220 -440 220t-440 -220v31q176 209 440 209z" />
    <glyph glyph-name="uniFF09.vert" orientation="v" 
d="M500 485q-264 0 -440 209v31q173 -220 440 -220t440 220v-31q-176 -209 -440 -209z" />
    <glyph glyph-name="uniFF1A.vert" orientation="v" 
d="M275 305v110h20v-110h-20zM705 305v110h20v-110h-20z" />
    <glyph glyph-name="uniFF1D.vert" orientation="v" 
d="M380 640h20v-560h-20v560zM600 640h20v-560h-20v560z" />
    <glyph glyph-name="uniFF3B.vert" orientation="v" 
d="M920 -15v290h-840v-290h-20v310h880v-310h-20z" />
    <glyph glyph-name="uniFF3D.vert" orientation="v" 
d="M920 735h20v-310h-880v310h20v-290h840v290z" />
    <glyph glyph-name="uniFF5B.vert" orientation="v" 
d="M501 275h-2q-32 -60 -139 -60h-160q-70 0 -95 -25t-25 -75v-150h-20v150q0 63 33 91.5t107 28.5h160q59 0 94.5 21.5t35.5 58.5v80h20v-80q0 -37 35.5 -58.5t94.5 -21.5h160q74 0 107 -28.5t33 -91.5v-150h-20v150q0 50 -25 75t-95 25h-160q-107 0 -139 60z" />
    <glyph glyph-name="uniFF5D.vert" orientation="v" 
d="M501 445q32 60 139 60h160q70 0 95 25t25 75v150h20v-150q0 -63 -33 -91.5t-107 -28.5h-160q-59 0 -94.5 -21.5t-35.5 -58.5v-80h-20v80q0 37 -35.5 58.5t-94.5 21.5h-160q-74 0 -107 28.5t-33 91.5v150h20v-150q0 -50 25 -75t95 -25h160q107 0 139 -60h2z" />
    <glyph glyph-name="uniFF5E.vert" orientation="v" 
d="M529 783q-124 -90 -124 -233q0 -106 88 -197q82 -85 82 -183q0 -133 -116 -217l12 -16q124 90 124 233q0 106 -88 197q-82 85 -82 183q0 133 116 217z" />
    <glyph glyph-name="uniFF0C.vert" orientation="v" 
d="M828 830h22l-80 -220h-22z" />
    <glyph glyph-name="uniFF0E.vert" orientation="v" 
d="M790 720v110h20v-110h-20z" />
    </font>
</defs>
</svg>
